<mxfile host="app.diagrams.net" modified="2022-08-23T15:49:14.328Z" agent="5.0 (Windows NT 10.0; Win64; x64) AppleWebKit/537.36 (KHTML, like Gecko) Chrome/104.0.0.0 Safari/537.36" etag="A29GumMjQ5irTc1AqeJN" version="20.2.6" type="github">
  <diagram id="C5RBs43oDa-KdzZeNtuy" name="Page-1">
    <mxGraphModel dx="4078" dy="3229" grid="1" gridSize="10" guides="1" tooltips="1" connect="1" arrows="1" fold="1" page="1" pageScale="1" pageWidth="827" pageHeight="1169" math="0" shadow="0">
      <root>
        <mxCell id="WIyWlLk6GJQsqaUBKTNV-0" />
        <mxCell id="WIyWlLk6GJQsqaUBKTNV-1" parent="WIyWlLk6GJQsqaUBKTNV-0" />
        <mxCell id="zkfFHV4jXpPFQw0GAbJ--0" value="GameManager" style="swimlane;fontStyle=1;align=center;verticalAlign=top;childLayout=stackLayout;horizontal=1;startSize=26;horizontalStack=0;resizeParent=1;resizeLast=0;collapsible=1;marginBottom=0;rounded=0;shadow=0;strokeWidth=1;" parent="WIyWlLk6GJQsqaUBKTNV-1" vertex="1">
          <mxGeometry x="199" y="-247" width="430" height="270" as="geometry">
            <mxRectangle x="150" y="90" width="160" height="26" as="alternateBounds" />
          </mxGeometry>
        </mxCell>
        <mxCell id="zkfFHV4jXpPFQw0GAbJ--2" value="+ &lt;&lt;Get&gt;&gt; Instance : GameManager" style="text;align=left;verticalAlign=top;spacingLeft=4;spacingRight=4;overflow=hidden;rotatable=0;points=[[0,0.5],[1,0.5]];portConstraint=eastwest;rounded=0;shadow=0;html=0;fontStyle=4" parent="zkfFHV4jXpPFQw0GAbJ--0" vertex="1">
          <mxGeometry y="26" width="430" height="26" as="geometry" />
        </mxCell>
        <mxCell id="zkfFHV4jXpPFQw0GAbJ--1" value="+ &lt;&lt;Get&gt;&gt; LevelManager : LevelManager" style="text;align=left;verticalAlign=top;spacingLeft=4;spacingRight=4;overflow=hidden;rotatable=0;points=[[0,0.5],[1,0.5]];portConstraint=eastwest;fontStyle=0" parent="zkfFHV4jXpPFQw0GAbJ--0" vertex="1">
          <mxGeometry y="52" width="430" height="26" as="geometry" />
        </mxCell>
        <mxCell id="zkfFHV4jXpPFQw0GAbJ--3" value="+ &lt;&lt;Get&gt;&gt; SaveLoader: SaveLoadManager" style="text;align=left;verticalAlign=top;spacingLeft=4;spacingRight=4;overflow=hidden;rotatable=0;points=[[0,0.5],[1,0.5]];portConstraint=eastwest;rounded=0;shadow=0;html=0;" parent="zkfFHV4jXpPFQw0GAbJ--0" vertex="1">
          <mxGeometry y="78" width="430" height="26" as="geometry" />
        </mxCell>
        <mxCell id="mCtXMymxD6PoVu8J4Z9Z-39" value="+ &lt;&lt;Get&gt;&gt; ScreenManager: ScreenManager" style="text;align=left;verticalAlign=top;spacingLeft=4;spacingRight=4;overflow=hidden;rotatable=0;points=[[0,0.5],[1,0.5]];portConstraint=eastwest;rounded=0;shadow=0;html=0;" parent="zkfFHV4jXpPFQw0GAbJ--0" vertex="1">
          <mxGeometry y="104" width="430" height="26" as="geometry" />
        </mxCell>
        <mxCell id="zkfFHV4jXpPFQw0GAbJ--4" value="" style="line;html=1;strokeWidth=1;align=left;verticalAlign=middle;spacingTop=-1;spacingLeft=3;spacingRight=3;rotatable=0;labelPosition=right;points=[];portConstraint=eastwest;" parent="zkfFHV4jXpPFQw0GAbJ--0" vertex="1">
          <mxGeometry y="130" width="430" height="8" as="geometry" />
        </mxCell>
        <mxCell id="zkfFHV4jXpPFQw0GAbJ--5" value="+ StartNewGame() : void" style="text;align=left;verticalAlign=top;spacingLeft=4;spacingRight=4;overflow=hidden;rotatable=0;points=[[0,0.5],[1,0.5]];portConstraint=eastwest;" parent="zkfFHV4jXpPFQw0GAbJ--0" vertex="1">
          <mxGeometry y="138" width="430" height="26" as="geometry" />
        </mxCell>
        <mxCell id="mCtXMymxD6PoVu8J4Z9Z-103" value="+ FinishLevel() : void" style="text;align=left;verticalAlign=top;spacingLeft=4;spacingRight=4;overflow=hidden;rotatable=0;points=[[0,0.5],[1,0.5]];portConstraint=eastwest;" parent="zkfFHV4jXpPFQw0GAbJ--0" vertex="1">
          <mxGeometry y="164" width="430" height="26" as="geometry" />
        </mxCell>
        <mxCell id="mCtXMymxD6PoVu8J4Z9Z-3" value="ScreenManager" style="swimlane;fontStyle=1;align=center;verticalAlign=top;childLayout=stackLayout;horizontal=1;startSize=26;horizontalStack=0;resizeParent=1;resizeParentMax=0;resizeLast=0;collapsible=1;marginBottom=0;" parent="WIyWlLk6GJQsqaUBKTNV-1" vertex="1">
          <mxGeometry x="871" y="-166" width="370" height="230" as="geometry" />
        </mxCell>
        <mxCell id="mCtXMymxD6PoVu8J4Z9Z-4" value="- startScreen: StartScreen" style="text;strokeColor=none;fillColor=none;align=left;verticalAlign=top;spacingLeft=4;spacingRight=4;overflow=hidden;rotatable=0;points=[[0,0.5],[1,0.5]];portConstraint=eastwest;" parent="mCtXMymxD6PoVu8J4Z9Z-3" vertex="1">
          <mxGeometry y="26" width="370" height="24" as="geometry" />
        </mxCell>
        <mxCell id="mCtXMymxD6PoVu8J4Z9Z-6" value="- gamePlayScreen: GamePlayScreen" style="text;strokeColor=none;fillColor=none;align=left;verticalAlign=top;spacingLeft=4;spacingRight=4;overflow=hidden;rotatable=0;points=[[0,0.5],[1,0.5]];portConstraint=eastwest;" parent="mCtXMymxD6PoVu8J4Z9Z-3" vertex="1">
          <mxGeometry y="50" width="370" height="26" as="geometry" />
        </mxCell>
        <mxCell id="mCtXMymxD6PoVu8J4Z9Z-11" value="- finishScreen:  FinishScreen" style="text;strokeColor=none;fillColor=none;align=left;verticalAlign=top;spacingLeft=4;spacingRight=4;overflow=hidden;rotatable=0;points=[[0,0.5],[1,0.5]];portConstraint=eastwest;" parent="mCtXMymxD6PoVu8J4Z9Z-3" vertex="1">
          <mxGeometry y="76" width="370" height="26" as="geometry" />
        </mxCell>
        <mxCell id="mCtXMymxD6PoVu8J4Z9Z-5" value="" style="line;strokeWidth=1;fillColor=none;align=left;verticalAlign=middle;spacingTop=-1;spacingLeft=3;spacingRight=3;rotatable=0;labelPosition=right;points=[];portConstraint=eastwest;" parent="mCtXMymxD6PoVu8J4Z9Z-3" vertex="1">
          <mxGeometry y="102" width="370" height="8" as="geometry" />
        </mxCell>
        <mxCell id="mCtXMymxD6PoVu8J4Z9Z-56" value="+ Init() : void" style="text;strokeColor=none;fillColor=none;align=left;verticalAlign=top;spacingLeft=4;spacingRight=4;overflow=hidden;rotatable=0;points=[[0,0.5],[1,0.5]];portConstraint=eastwest;" parent="mCtXMymxD6PoVu8J4Z9Z-3" vertex="1">
          <mxGeometry y="110" width="370" height="24" as="geometry" />
        </mxCell>
        <mxCell id="mCtXMymxD6PoVu8J4Z9Z-10" value="+ OpenStartScreen() : void" style="text;strokeColor=none;fillColor=none;align=left;verticalAlign=top;spacingLeft=4;spacingRight=4;overflow=hidden;rotatable=0;points=[[0,0.5],[1,0.5]];portConstraint=eastwest;" parent="mCtXMymxD6PoVu8J4Z9Z-3" vertex="1">
          <mxGeometry y="134" width="370" height="24" as="geometry" />
        </mxCell>
        <mxCell id="mCtXMymxD6PoVu8J4Z9Z-54" value="+ OpenGamePlayScreen() : void" style="text;strokeColor=none;fillColor=none;align=left;verticalAlign=top;spacingLeft=4;spacingRight=4;overflow=hidden;rotatable=0;points=[[0,0.5],[1,0.5]];portConstraint=eastwest;" parent="mCtXMymxD6PoVu8J4Z9Z-3" vertex="1">
          <mxGeometry y="158" width="370" height="24" as="geometry" />
        </mxCell>
        <mxCell id="mCtXMymxD6PoVu8J4Z9Z-55" value="+ OpenFinishScreen() : void" style="text;strokeColor=none;fillColor=none;align=left;verticalAlign=top;spacingLeft=4;spacingRight=4;overflow=hidden;rotatable=0;points=[[0,0.5],[1,0.5]];portConstraint=eastwest;" parent="mCtXMymxD6PoVu8J4Z9Z-3" vertex="1">
          <mxGeometry y="182" width="370" height="24" as="geometry" />
        </mxCell>
        <mxCell id="mCtXMymxD6PoVu8J4Z9Z-57" value="+ HideAllScreens() : void" style="text;strokeColor=none;fillColor=none;align=left;verticalAlign=top;spacingLeft=4;spacingRight=4;overflow=hidden;rotatable=0;points=[[0,0.5],[1,0.5]];portConstraint=eastwest;" parent="mCtXMymxD6PoVu8J4Z9Z-3" vertex="1">
          <mxGeometry y="206" width="370" height="24" as="geometry" />
        </mxCell>
        <mxCell id="mCtXMymxD6PoVu8J4Z9Z-12" value="UIBaseScreen" style="swimlane;fontStyle=1;align=center;verticalAlign=top;childLayout=stackLayout;horizontal=1;startSize=26;horizontalStack=0;resizeParent=1;resizeParentMax=0;resizeLast=0;collapsible=1;marginBottom=0;" parent="WIyWlLk6GJQsqaUBKTNV-1" vertex="1">
          <mxGeometry x="2020" y="-230" width="370" height="130" as="geometry" />
        </mxCell>
        <mxCell id="mCtXMymxD6PoVu8J4Z9Z-13" value="- canvasGroup : CanvasGroup " style="text;strokeColor=none;fillColor=none;align=left;verticalAlign=top;spacingLeft=4;spacingRight=4;overflow=hidden;rotatable=0;points=[[0,0.5],[1,0.5]];portConstraint=eastwest;" parent="mCtXMymxD6PoVu8J4Z9Z-12" vertex="1">
          <mxGeometry y="26" width="370" height="24" as="geometry" />
        </mxCell>
        <mxCell id="mCtXMymxD6PoVu8J4Z9Z-16" value="" style="line;strokeWidth=1;fillColor=none;align=left;verticalAlign=middle;spacingTop=-1;spacingLeft=3;spacingRight=3;rotatable=0;labelPosition=right;points=[];portConstraint=eastwest;" parent="mCtXMymxD6PoVu8J4Z9Z-12" vertex="1">
          <mxGeometry y="50" width="370" height="8" as="geometry" />
        </mxCell>
        <mxCell id="mCtXMymxD6PoVu8J4Z9Z-21" value="+ Init() : void" style="text;strokeColor=none;fillColor=none;align=left;verticalAlign=top;spacingLeft=4;spacingRight=4;overflow=hidden;rotatable=0;points=[[0,0.5],[1,0.5]];portConstraint=eastwest;" parent="mCtXMymxD6PoVu8J4Z9Z-12" vertex="1">
          <mxGeometry y="58" width="370" height="24" as="geometry" />
        </mxCell>
        <mxCell id="mCtXMymxD6PoVu8J4Z9Z-17" value="+ Show() : void" style="text;strokeColor=none;fillColor=none;align=left;verticalAlign=top;spacingLeft=4;spacingRight=4;overflow=hidden;rotatable=0;points=[[0,0.5],[1,0.5]];portConstraint=eastwest;" parent="mCtXMymxD6PoVu8J4Z9Z-12" vertex="1">
          <mxGeometry y="82" width="370" height="24" as="geometry" />
        </mxCell>
        <mxCell id="mCtXMymxD6PoVu8J4Z9Z-19" value="+ Hide() : void" style="text;strokeColor=none;fillColor=none;align=left;verticalAlign=top;spacingLeft=4;spacingRight=4;overflow=hidden;rotatable=0;points=[[0,0.5],[1,0.5]];portConstraint=eastwest;" parent="mCtXMymxD6PoVu8J4Z9Z-12" vertex="1">
          <mxGeometry y="106" width="370" height="24" as="geometry" />
        </mxCell>
        <mxCell id="mCtXMymxD6PoVu8J4Z9Z-22" value="GamePlayScreen" style="swimlane;fontStyle=1;align=center;verticalAlign=top;childLayout=stackLayout;horizontal=1;startSize=26;horizontalStack=0;resizeParent=1;resizeParentMax=0;resizeLast=0;collapsible=1;marginBottom=0;" parent="WIyWlLk6GJQsqaUBKTNV-1" vertex="1">
          <mxGeometry x="1410" y="-150" width="370" height="34" as="geometry" />
        </mxCell>
        <mxCell id="mCtXMymxD6PoVu8J4Z9Z-25" value="" style="line;strokeWidth=1;fillColor=none;align=left;verticalAlign=middle;spacingTop=-1;spacingLeft=3;spacingRight=3;rotatable=0;labelPosition=right;points=[];portConstraint=eastwest;" parent="mCtXMymxD6PoVu8J4Z9Z-22" vertex="1">
          <mxGeometry y="26" width="370" height="8" as="geometry" />
        </mxCell>
        <mxCell id="mCtXMymxD6PoVu8J4Z9Z-29" value="Extends" style="endArrow=block;endSize=16;endFill=0;html=1;rounded=0;exitX=1;exitY=0.5;exitDx=0;exitDy=0;entryX=0;entryY=0.5;entryDx=0;entryDy=0;" parent="WIyWlLk6GJQsqaUBKTNV-1" source="mCtXMymxD6PoVu8J4Z9Z-22" target="mCtXMymxD6PoVu8J4Z9Z-21" edge="1">
          <mxGeometry width="160" relative="1" as="geometry">
            <mxPoint x="909" y="370" as="sourcePoint" />
            <mxPoint x="1069" y="370" as="targetPoint" />
          </mxGeometry>
        </mxCell>
        <mxCell id="mCtXMymxD6PoVu8J4Z9Z-30" value="StartScreen" style="swimlane;fontStyle=1;align=center;verticalAlign=top;childLayout=stackLayout;horizontal=1;startSize=26;horizontalStack=0;resizeParent=1;resizeParentMax=0;resizeLast=0;collapsible=1;marginBottom=0;" parent="WIyWlLk6GJQsqaUBKTNV-1" vertex="1">
          <mxGeometry x="1390" y="-430" width="370" height="130" as="geometry" />
        </mxCell>
        <mxCell id="mCtXMymxD6PoVu8J4Z9Z-82" value="- blackImage : AlphaReducerImage" style="text;strokeColor=none;fillColor=none;align=left;verticalAlign=top;spacingLeft=4;spacingRight=4;overflow=hidden;rotatable=0;points=[[0,0.5],[1,0.5]];portConstraint=eastwest;" parent="mCtXMymxD6PoVu8J4Z9Z-30" vertex="1">
          <mxGeometry y="26" width="370" height="24" as="geometry" />
        </mxCell>
        <mxCell id="mCtXMymxD6PoVu8J4Z9Z-110" value="- gameManager : GameManager" style="text;strokeColor=none;fillColor=none;align=left;verticalAlign=top;spacingLeft=4;spacingRight=4;overflow=hidden;rotatable=0;points=[[0,0.5],[1,0.5]];portConstraint=eastwest;" parent="mCtXMymxD6PoVu8J4Z9Z-30" vertex="1">
          <mxGeometry y="50" width="370" height="24" as="geometry" />
        </mxCell>
        <mxCell id="mCtXMymxD6PoVu8J4Z9Z-31" value="" style="line;strokeWidth=1;fillColor=none;align=left;verticalAlign=middle;spacingTop=-1;spacingLeft=3;spacingRight=3;rotatable=0;labelPosition=right;points=[];portConstraint=eastwest;" parent="mCtXMymxD6PoVu8J4Z9Z-30" vertex="1">
          <mxGeometry y="74" width="370" height="8" as="geometry" />
        </mxCell>
        <mxCell id="mCtXMymxD6PoVu8J4Z9Z-81" value="+ StartReduceImage() : void" style="text;strokeColor=none;fillColor=none;align=left;verticalAlign=top;spacingLeft=4;spacingRight=4;overflow=hidden;rotatable=0;points=[[0,0.5],[1,0.5]];portConstraint=eastwest;" parent="mCtXMymxD6PoVu8J4Z9Z-30" vertex="1">
          <mxGeometry y="82" width="370" height="24" as="geometry" />
        </mxCell>
        <mxCell id="mCtXMymxD6PoVu8J4Z9Z-84" value="+ OnEndImageReduce() : void" style="text;strokeColor=none;fillColor=none;align=left;verticalAlign=top;spacingLeft=4;spacingRight=4;overflow=hidden;rotatable=0;points=[[0,0.5],[1,0.5]];portConstraint=eastwest;" parent="mCtXMymxD6PoVu8J4Z9Z-30" vertex="1">
          <mxGeometry y="106" width="370" height="24" as="geometry" />
        </mxCell>
        <mxCell id="mCtXMymxD6PoVu8J4Z9Z-32" value="FinishScreen" style="swimlane;fontStyle=1;align=center;verticalAlign=top;childLayout=stackLayout;horizontal=1;startSize=26;horizontalStack=0;resizeParent=1;resizeParentMax=0;resizeLast=0;collapsible=1;marginBottom=0;" parent="WIyWlLk6GJQsqaUBKTNV-1" vertex="1">
          <mxGeometry x="1410" y="30" width="370" height="34" as="geometry" />
        </mxCell>
        <mxCell id="mCtXMymxD6PoVu8J4Z9Z-33" value="" style="line;strokeWidth=1;fillColor=none;align=left;verticalAlign=middle;spacingTop=-1;spacingLeft=3;spacingRight=3;rotatable=0;labelPosition=right;points=[];portConstraint=eastwest;" parent="mCtXMymxD6PoVu8J4Z9Z-32" vertex="1">
          <mxGeometry y="26" width="370" height="8" as="geometry" />
        </mxCell>
        <mxCell id="mCtXMymxD6PoVu8J4Z9Z-34" value="Extends" style="endArrow=block;endSize=16;endFill=0;html=1;rounded=0;exitX=1;exitY=0.5;exitDx=0;exitDy=0;entryX=0;entryY=0.5;entryDx=0;entryDy=0;" parent="WIyWlLk6GJQsqaUBKTNV-1" source="mCtXMymxD6PoVu8J4Z9Z-81" edge="1">
          <mxGeometry width="160" relative="1" as="geometry">
            <mxPoint x="1079" y="427.00800000000004" as="sourcePoint" />
            <mxPoint x="2020" y="-168" as="targetPoint" />
          </mxGeometry>
        </mxCell>
        <mxCell id="mCtXMymxD6PoVu8J4Z9Z-35" value="Extends" style="endArrow=block;endSize=16;endFill=0;html=1;rounded=0;entryX=0;entryY=0.5;entryDx=0;entryDy=0;exitX=1;exitY=0.5;exitDx=0;exitDy=0;" parent="WIyWlLk6GJQsqaUBKTNV-1" source="mCtXMymxD6PoVu8J4Z9Z-32" target="mCtXMymxD6PoVu8J4Z9Z-17" edge="1">
          <mxGeometry width="160" relative="1" as="geometry">
            <mxPoint x="1629" y="410" as="sourcePoint" />
            <mxPoint x="1458.9964155487762" y="300" as="targetPoint" />
          </mxGeometry>
        </mxCell>
        <mxCell id="mCtXMymxD6PoVu8J4Z9Z-36" value="" style="endArrow=open;endFill=1;endSize=12;html=1;rounded=0;exitX=1;exitY=0.5;exitDx=0;exitDy=0;" parent="WIyWlLk6GJQsqaUBKTNV-1" source="mCtXMymxD6PoVu8J4Z9Z-56" edge="1">
          <mxGeometry width="160" relative="1" as="geometry">
            <mxPoint x="979" y="660" as="sourcePoint" />
            <mxPoint x="1410" y="-133" as="targetPoint" />
          </mxGeometry>
        </mxCell>
        <mxCell id="mCtXMymxD6PoVu8J4Z9Z-37" value="" style="endArrow=open;endFill=1;endSize=12;html=1;rounded=0;entryX=0;entryY=0.5;entryDx=0;entryDy=0;exitX=1;exitY=0.5;exitDx=0;exitDy=0;" parent="WIyWlLk6GJQsqaUBKTNV-1" source="mCtXMymxD6PoVu8J4Z9Z-6" target="mCtXMymxD6PoVu8J4Z9Z-81" edge="1">
          <mxGeometry width="160" relative="1" as="geometry">
            <mxPoint x="1065" y="-280" as="sourcePoint" />
            <mxPoint x="919.7799999999997" y="461.664" as="targetPoint" />
          </mxGeometry>
        </mxCell>
        <mxCell id="mCtXMymxD6PoVu8J4Z9Z-38" value="" style="endArrow=open;endFill=1;endSize=12;html=1;rounded=0;entryX=0.114;entryY=-0.059;entryDx=0;entryDy=0;entryPerimeter=0;exitX=1;exitY=0.5;exitDx=0;exitDy=0;" parent="WIyWlLk6GJQsqaUBKTNV-1" source="mCtXMymxD6PoVu8J4Z9Z-10" target="mCtXMymxD6PoVu8J4Z9Z-32" edge="1">
          <mxGeometry width="160" relative="1" as="geometry">
            <mxPoint x="1284" y="600" as="sourcePoint" />
            <mxPoint x="1211.8000000000002" y="464.336" as="targetPoint" />
          </mxGeometry>
        </mxCell>
        <mxCell id="mCtXMymxD6PoVu8J4Z9Z-41" value="" style="endArrow=open;endFill=1;endSize=12;html=1;rounded=0;entryX=0;entryY=0.5;entryDx=0;entryDy=0;exitX=1;exitY=0.5;exitDx=0;exitDy=0;" parent="WIyWlLk6GJQsqaUBKTNV-1" source="mCtXMymxD6PoVu8J4Z9Z-39" target="mCtXMymxD6PoVu8J4Z9Z-56" edge="1">
          <mxGeometry width="160" relative="1" as="geometry">
            <mxPoint x="675" y="630" as="sourcePoint" />
            <mxPoint x="848" y="464" as="targetPoint" />
          </mxGeometry>
        </mxCell>
        <mxCell id="mCtXMymxD6PoVu8J4Z9Z-42" value="LevelManager" style="swimlane;fontStyle=1;align=center;verticalAlign=top;childLayout=stackLayout;horizontal=1;startSize=26;horizontalStack=0;resizeParent=1;resizeParentMax=0;resizeLast=0;collapsible=1;marginBottom=0;" parent="WIyWlLk6GJQsqaUBKTNV-1" vertex="1">
          <mxGeometry x="-90" y="190" width="370" height="108" as="geometry" />
        </mxCell>
        <mxCell id="mCtXMymxD6PoVu8J4Z9Z-43" value="+ &lt;&lt;Get&gt;&gt;  -&lt;&lt;Set&gt;&gt; CurrentLevel: LevelController" style="text;strokeColor=none;fillColor=none;align=left;verticalAlign=top;spacingLeft=4;spacingRight=4;overflow=hidden;rotatable=0;points=[[0,0.5],[1,0.5]];portConstraint=eastwest;" parent="mCtXMymxD6PoVu8J4Z9Z-42" vertex="1">
          <mxGeometry y="26" width="370" height="24" as="geometry" />
        </mxCell>
        <mxCell id="mCtXMymxD6PoVu8J4Z9Z-44" value="+ &lt;&lt;Get&gt;&gt;  -&lt;&lt;Set&gt;&gt; CurrentLevelIndex: int" style="text;strokeColor=none;fillColor=none;align=left;verticalAlign=top;spacingLeft=4;spacingRight=4;overflow=hidden;rotatable=0;points=[[0,0.5],[1,0.5]];portConstraint=eastwest;" parent="mCtXMymxD6PoVu8J4Z9Z-42" vertex="1">
          <mxGeometry y="50" width="370" height="26" as="geometry" />
        </mxCell>
        <mxCell id="mCtXMymxD6PoVu8J4Z9Z-46" value="" style="line;strokeWidth=1;fillColor=none;align=left;verticalAlign=middle;spacingTop=-1;spacingLeft=3;spacingRight=3;rotatable=0;labelPosition=right;points=[];portConstraint=eastwest;" parent="mCtXMymxD6PoVu8J4Z9Z-42" vertex="1">
          <mxGeometry y="76" width="370" height="8" as="geometry" />
        </mxCell>
        <mxCell id="mCtXMymxD6PoVu8J4Z9Z-47" value="+ LoadLevel() : void" style="text;strokeColor=none;fillColor=none;align=left;verticalAlign=top;spacingLeft=4;spacingRight=4;overflow=hidden;rotatable=0;points=[[0,0.5],[1,0.5]];portConstraint=eastwest;" parent="mCtXMymxD6PoVu8J4Z9Z-42" vertex="1">
          <mxGeometry y="84" width="370" height="24" as="geometry" />
        </mxCell>
        <mxCell id="mCtXMymxD6PoVu8J4Z9Z-48" value="" style="endArrow=open;endFill=1;endSize=12;html=1;rounded=0;entryX=0.5;entryY=0;entryDx=0;entryDy=0;exitX=0.5;exitY=1;exitDx=0;exitDy=0;" parent="WIyWlLk6GJQsqaUBKTNV-1" source="zkfFHV4jXpPFQw0GAbJ--0" target="mCtXMymxD6PoVu8J4Z9Z-42" edge="1">
          <mxGeometry width="160" relative="1" as="geometry">
            <mxPoint x="321.3499999999999" y="317.66599999999994" as="sourcePoint" />
            <mxPoint x="675" y="630" as="targetPoint" />
          </mxGeometry>
        </mxCell>
        <mxCell id="mCtXMymxD6PoVu8J4Z9Z-70" value="AlphaReducerImage" style="swimlane;fontStyle=1;align=center;verticalAlign=top;childLayout=stackLayout;horizontal=1;startSize=26;horizontalStack=0;resizeParent=1;resizeParentMax=0;resizeLast=0;collapsible=1;marginBottom=0;" parent="WIyWlLk6GJQsqaUBKTNV-1" vertex="1">
          <mxGeometry x="1830" y="-600" width="370" height="132" as="geometry" />
        </mxCell>
        <mxCell id="mCtXMymxD6PoVu8J4Z9Z-71" value="- image: Image" style="text;strokeColor=none;fillColor=none;align=left;verticalAlign=top;spacingLeft=4;spacingRight=4;overflow=hidden;rotatable=0;points=[[0,0.5],[1,0.5]];portConstraint=eastwest;" parent="mCtXMymxD6PoVu8J4Z9Z-70" vertex="1">
          <mxGeometry y="26" width="370" height="24" as="geometry" />
        </mxCell>
        <mxCell id="mCtXMymxD6PoVu8J4Z9Z-72" value="- reduceDuration: float" style="text;strokeColor=none;fillColor=none;align=left;verticalAlign=top;spacingLeft=4;spacingRight=4;overflow=hidden;rotatable=0;points=[[0,0.5],[1,0.5]];portConstraint=eastwest;" parent="mCtXMymxD6PoVu8J4Z9Z-70" vertex="1">
          <mxGeometry y="50" width="370" height="26" as="geometry" />
        </mxCell>
        <mxCell id="mCtXMymxD6PoVu8J4Z9Z-74" value="" style="line;strokeWidth=1;fillColor=none;align=left;verticalAlign=middle;spacingTop=-1;spacingLeft=3;spacingRight=3;rotatable=0;labelPosition=right;points=[];portConstraint=eastwest;" parent="mCtXMymxD6PoVu8J4Z9Z-70" vertex="1">
          <mxGeometry y="76" width="370" height="8" as="geometry" />
        </mxCell>
        <mxCell id="mCtXMymxD6PoVu8J4Z9Z-75" value="+ StartReduce() : void" style="text;strokeColor=none;fillColor=none;align=left;verticalAlign=top;spacingLeft=4;spacingRight=4;overflow=hidden;rotatable=0;points=[[0,0.5],[1,0.5]];portConstraint=eastwest;" parent="mCtXMymxD6PoVu8J4Z9Z-70" vertex="1">
          <mxGeometry y="84" width="370" height="24" as="geometry" />
        </mxCell>
        <mxCell id="mCtXMymxD6PoVu8J4Z9Z-76" value="- DoReduce() : IEnumerator" style="text;strokeColor=none;fillColor=none;align=left;verticalAlign=top;spacingLeft=4;spacingRight=4;overflow=hidden;rotatable=0;points=[[0,0.5],[1,0.5]];portConstraint=eastwest;" parent="mCtXMymxD6PoVu8J4Z9Z-70" vertex="1">
          <mxGeometry y="108" width="370" height="24" as="geometry" />
        </mxCell>
        <mxCell id="mCtXMymxD6PoVu8J4Z9Z-85" value="" style="endArrow=open;endFill=1;endSize=12;html=1;rounded=0;entryX=0.497;entryY=1.167;entryDx=0;entryDy=0;exitX=1.002;exitY=0.117;exitDx=0;exitDy=0;exitPerimeter=0;entryPerimeter=0;" parent="WIyWlLk6GJQsqaUBKTNV-1" source="mCtXMymxD6PoVu8J4Z9Z-81" target="mCtXMymxD6PoVu8J4Z9Z-76" edge="1">
          <mxGeometry width="160" relative="1" as="geometry">
            <mxPoint x="1210" y="530" as="sourcePoint" />
            <mxPoint x="1354.5900000000001" y="538.808" as="targetPoint" />
          </mxGeometry>
        </mxCell>
        <mxCell id="mCtXMymxD6PoVu8J4Z9Z-90" value="&amp;lt;&amp;lt;StartGamePlay&amp;gt;&amp;gt;" style="endArrow=open;endFill=1;endSize=12;html=1;rounded=0;entryX=1;entryY=0.5;entryDx=0;entryDy=0;exitX=0;exitY=0.25;exitDx=0;exitDy=0;fontSize=14;verticalAlign=middle;" parent="WIyWlLk6GJQsqaUBKTNV-1" source="mCtXMymxD6PoVu8J4Z9Z-30" target="zkfFHV4jXpPFQw0GAbJ--1" edge="1">
          <mxGeometry x="-0.0348" y="-18" width="160" relative="1" as="geometry">
            <mxPoint x="940" y="-230" as="sourcePoint" />
            <mxPoint x="1100" y="-230" as="targetPoint" />
            <mxPoint as="offset" />
          </mxGeometry>
        </mxCell>
        <mxCell id="mCtXMymxD6PoVu8J4Z9Z-59" value="EventManager" style="swimlane;fontStyle=1;align=center;verticalAlign=top;childLayout=stackLayout;horizontal=1;startSize=26;horizontalStack=0;resizeParent=1;resizeParentMax=0;resizeLast=0;collapsible=1;marginBottom=0;" parent="WIyWlLk6GJQsqaUBKTNV-1" vertex="1">
          <mxGeometry x="441" y="-616" width="430" height="106" as="geometry" />
        </mxCell>
        <mxCell id="mCtXMymxD6PoVu8J4Z9Z-62" value="" style="line;strokeWidth=1;fillColor=none;align=left;verticalAlign=middle;spacingTop=-1;spacingLeft=3;spacingRight=3;rotatable=0;labelPosition=right;points=[];portConstraint=eastwest;" parent="mCtXMymxD6PoVu8J4Z9Z-59" vertex="1">
          <mxGeometry y="26" width="430" height="8" as="geometry" />
        </mxCell>
        <mxCell id="mCtXMymxD6PoVu8J4Z9Z-63" value="+ StartListening(string, Action) : void" style="text;strokeColor=none;fillColor=none;align=left;verticalAlign=top;spacingLeft=4;spacingRight=4;overflow=hidden;rotatable=0;points=[[0,0.5],[1,0.5]];portConstraint=eastwest;fontStyle=4" parent="mCtXMymxD6PoVu8J4Z9Z-59" vertex="1">
          <mxGeometry y="34" width="430" height="24" as="geometry" />
        </mxCell>
        <mxCell id="mCtXMymxD6PoVu8J4Z9Z-64" value="+ StopListening(string, Action) : void" style="text;strokeColor=none;fillColor=none;align=left;verticalAlign=top;spacingLeft=4;spacingRight=4;overflow=hidden;rotatable=0;points=[[0,0.5],[1,0.5]];portConstraint=eastwest;fontStyle=4" parent="mCtXMymxD6PoVu8J4Z9Z-59" vertex="1">
          <mxGeometry y="58" width="430" height="24" as="geometry" />
        </mxCell>
        <mxCell id="mCtXMymxD6PoVu8J4Z9Z-69" value="+ TriggerEvent(string) : void" style="text;strokeColor=none;fillColor=none;align=left;verticalAlign=top;spacingLeft=4;spacingRight=4;overflow=hidden;rotatable=0;points=[[0,0.5],[1,0.5]];portConstraint=eastwest;fontStyle=4" parent="mCtXMymxD6PoVu8J4Z9Z-59" vertex="1">
          <mxGeometry y="82" width="430" height="24" as="geometry" />
        </mxCell>
        <mxCell id="mCtXMymxD6PoVu8J4Z9Z-91" value="LevelController" style="swimlane;fontStyle=1;align=center;verticalAlign=top;childLayout=stackLayout;horizontal=1;startSize=26;horizontalStack=0;resizeParent=1;resizeParentMax=0;resizeLast=0;collapsible=1;marginBottom=0;" parent="WIyWlLk6GJQsqaUBKTNV-1" vertex="1">
          <mxGeometry x="-10" y="410" width="370" height="58" as="geometry" />
        </mxCell>
        <mxCell id="mCtXMymxD6PoVu8J4Z9Z-94" value="" style="line;strokeWidth=1;fillColor=none;align=left;verticalAlign=middle;spacingTop=-1;spacingLeft=3;spacingRight=3;rotatable=0;labelPosition=right;points=[];portConstraint=eastwest;" parent="mCtXMymxD6PoVu8J4Z9Z-91" vertex="1">
          <mxGeometry y="26" width="370" height="8" as="geometry" />
        </mxCell>
        <mxCell id="mCtXMymxD6PoVu8J4Z9Z-95" value="+ Init() : void" style="text;strokeColor=none;fillColor=none;align=left;verticalAlign=top;spacingLeft=4;spacingRight=4;overflow=hidden;rotatable=0;points=[[0,0.5],[1,0.5]];portConstraint=eastwest;" parent="mCtXMymxD6PoVu8J4Z9Z-91" vertex="1">
          <mxGeometry y="34" width="370" height="24" as="geometry" />
        </mxCell>
        <mxCell id="mCtXMymxD6PoVu8J4Z9Z-96" value="" style="endArrow=open;endFill=1;endSize=12;html=1;rounded=0;entryX=0.419;entryY=1.139;entryDx=0;entryDy=0;exitX=0.331;exitY=-0.023;exitDx=0;exitDy=0;exitPerimeter=0;entryPerimeter=0;" parent="WIyWlLk6GJQsqaUBKTNV-1" source="mCtXMymxD6PoVu8J4Z9Z-91" target="mCtXMymxD6PoVu8J4Z9Z-47" edge="1">
          <mxGeometry width="160" relative="1" as="geometry">
            <mxPoint x="396.48" y="-72.11599999999999" as="sourcePoint" />
            <mxPoint x="15" y="220" as="targetPoint" />
          </mxGeometry>
        </mxCell>
        <mxCell id="mCtXMymxD6PoVu8J4Z9Z-97" value="Player" style="swimlane;fontStyle=1;align=center;verticalAlign=top;childLayout=stackLayout;horizontal=1;startSize=26;horizontalStack=0;resizeParent=1;resizeParentMax=0;resizeLast=0;collapsible=1;marginBottom=0;" parent="WIyWlLk6GJQsqaUBKTNV-1" vertex="1">
          <mxGeometry x="-10" y="-890" width="370" height="186" as="geometry" />
        </mxCell>
        <mxCell id="mCtXMymxD6PoVu8J4Z9Z-98" value="- moveComponent : PlayerMoveComponent" style="text;strokeColor=none;fillColor=none;align=left;verticalAlign=top;spacingLeft=4;spacingRight=4;overflow=hidden;rotatable=0;points=[[0,0.5],[1,0.5]];portConstraint=eastwest;" parent="mCtXMymxD6PoVu8J4Z9Z-97" vertex="1">
          <mxGeometry y="26" width="370" height="24" as="geometry" />
        </mxCell>
        <mxCell id="mCtXMymxD6PoVu8J4Z9Z-99" value="- attackComponent: PlayerAttackComponent" style="text;strokeColor=none;fillColor=none;align=left;verticalAlign=top;spacingLeft=4;spacingRight=4;overflow=hidden;rotatable=0;points=[[0,0.5],[1,0.5]];portConstraint=eastwest;" parent="mCtXMymxD6PoVu8J4Z9Z-97" vertex="1">
          <mxGeometry y="50" width="370" height="26" as="geometry" />
        </mxCell>
        <mxCell id="mCtXMymxD6PoVu8J4Z9Z-102" value="- crowdComponent: PlayerCrowdComponent" style="text;strokeColor=none;fillColor=none;align=left;verticalAlign=top;spacingLeft=4;spacingRight=4;overflow=hidden;rotatable=0;points=[[0,0.5],[1,0.5]];portConstraint=eastwest;" parent="mCtXMymxD6PoVu8J4Z9Z-97" vertex="1">
          <mxGeometry y="76" width="370" height="26" as="geometry" />
        </mxCell>
        <mxCell id="mCtXMymxD6PoVu8J4Z9Z-157" value="- upgradeComponent: PlayerUpgradeComponent" style="text;strokeColor=none;fillColor=none;align=left;verticalAlign=top;spacingLeft=4;spacingRight=4;overflow=hidden;rotatable=0;points=[[0,0.5],[1,0.5]];portConstraint=eastwest;" parent="mCtXMymxD6PoVu8J4Z9Z-97" vertex="1">
          <mxGeometry y="102" width="370" height="26" as="geometry" />
        </mxCell>
        <mxCell id="IOBqYMl_oJ27bjHW-lKR-28" value="- animationComponent: PlayerAnimationComponent" style="text;strokeColor=none;fillColor=none;align=left;verticalAlign=top;spacingLeft=4;spacingRight=4;overflow=hidden;rotatable=0;points=[[0,0.5],[1,0.5]];portConstraint=eastwest;" vertex="1" parent="mCtXMymxD6PoVu8J4Z9Z-97">
          <mxGeometry y="128" width="370" height="26" as="geometry" />
        </mxCell>
        <mxCell id="mCtXMymxD6PoVu8J4Z9Z-100" value="" style="line;strokeWidth=1;fillColor=none;align=left;verticalAlign=middle;spacingTop=-1;spacingLeft=3;spacingRight=3;rotatable=0;labelPosition=right;points=[];portConstraint=eastwest;" parent="mCtXMymxD6PoVu8J4Z9Z-97" vertex="1">
          <mxGeometry y="154" width="370" height="8" as="geometry" />
        </mxCell>
        <mxCell id="mCtXMymxD6PoVu8J4Z9Z-101" value="- Update() : void" style="text;strokeColor=none;fillColor=none;align=left;verticalAlign=top;spacingLeft=4;spacingRight=4;overflow=hidden;rotatable=0;points=[[0,0.5],[1,0.5]];portConstraint=eastwest;" parent="mCtXMymxD6PoVu8J4Z9Z-97" vertex="1">
          <mxGeometry y="162" width="370" height="24" as="geometry" />
        </mxCell>
        <mxCell id="mCtXMymxD6PoVu8J4Z9Z-104" value="PlayerMoveComponent" style="swimlane;fontStyle=1;align=center;verticalAlign=top;childLayout=stackLayout;horizontal=1;startSize=26;horizontalStack=0;resizeParent=1;resizeParentMax=0;resizeLast=0;collapsible=1;marginBottom=0;" parent="WIyWlLk6GJQsqaUBKTNV-1" vertex="1">
          <mxGeometry x="-620" y="-890" width="370" height="274" as="geometry" />
        </mxCell>
        <mxCell id="mCtXMymxD6PoVu8J4Z9Z-105" value="- playerMoveConfig : PlayerMoveConfig" style="text;strokeColor=none;fillColor=none;align=left;verticalAlign=top;spacingLeft=4;spacingRight=4;overflow=hidden;rotatable=0;points=[[0,0.5],[1,0.5]];portConstraint=eastwest;" parent="mCtXMymxD6PoVu8J4Z9Z-104" vertex="1">
          <mxGeometry y="26" width="370" height="24" as="geometry" />
        </mxCell>
        <mxCell id="rwpX8sAkl0MTFjeVuuJa-12" value="- playerAnimationComponent : PlayerAnimationComponent" style="text;strokeColor=none;fillColor=none;align=left;verticalAlign=top;spacingLeft=4;spacingRight=4;overflow=hidden;rotatable=0;points=[[0,0.5],[1,0.5]];portConstraint=eastwest;" parent="mCtXMymxD6PoVu8J4Z9Z-104" vertex="1">
          <mxGeometry y="50" width="370" height="24" as="geometry" />
        </mxCell>
        <mxCell id="mCtXMymxD6PoVu8J4Z9Z-153" value="- moveSpeed : float" style="text;strokeColor=none;fillColor=none;align=left;verticalAlign=top;spacingLeft=4;spacingRight=4;overflow=hidden;rotatable=0;points=[[0,0.5],[1,0.5]];portConstraint=eastwest;" parent="mCtXMymxD6PoVu8J4Z9Z-104" vertex="1">
          <mxGeometry y="74" width="370" height="24" as="geometry" />
        </mxCell>
        <mxCell id="mCtXMymxD6PoVu8J4Z9Z-154" value="- rotationSpeed : float" style="text;strokeColor=none;fillColor=none;align=left;verticalAlign=top;spacingLeft=4;spacingRight=4;overflow=hidden;rotatable=0;points=[[0,0.5],[1,0.5]];portConstraint=eastwest;" parent="mCtXMymxD6PoVu8J4Z9Z-104" vertex="1">
          <mxGeometry y="98" width="370" height="24" as="geometry" />
        </mxCell>
        <mxCell id="mCtXMymxD6PoVu8J4Z9Z-152" value="- rigidBody : RigidBody" style="text;strokeColor=none;fillColor=none;align=left;verticalAlign=top;spacingLeft=4;spacingRight=4;overflow=hidden;rotatable=0;points=[[0,0.5],[1,0.5]];portConstraint=eastwest;" parent="mCtXMymxD6PoVu8J4Z9Z-104" vertex="1">
          <mxGeometry y="122" width="370" height="24" as="geometry" />
        </mxCell>
        <mxCell id="mCtXMymxD6PoVu8J4Z9Z-108" value="" style="line;strokeWidth=1;fillColor=none;align=left;verticalAlign=middle;spacingTop=-1;spacingLeft=3;spacingRight=3;rotatable=0;labelPosition=right;points=[];portConstraint=eastwest;" parent="mCtXMymxD6PoVu8J4Z9Z-104" vertex="1">
          <mxGeometry y="146" width="370" height="8" as="geometry" />
        </mxCell>
        <mxCell id="mCtXMymxD6PoVu8J4Z9Z-158" value="- FixedUpdate() : void" style="text;strokeColor=none;fillColor=none;align=left;verticalAlign=top;spacingLeft=4;spacingRight=4;overflow=hidden;rotatable=0;points=[[0,0.5],[1,0.5]];portConstraint=eastwest;" parent="mCtXMymxD6PoVu8J4Z9Z-104" vertex="1">
          <mxGeometry y="154" width="370" height="24" as="geometry" />
        </mxCell>
        <mxCell id="mCtXMymxD6PoVu8J4Z9Z-109" value="- UpdateSpeed() : void" style="text;strokeColor=none;fillColor=none;align=left;verticalAlign=top;spacingLeft=4;spacingRight=4;overflow=hidden;rotatable=0;points=[[0,0.5],[1,0.5]];portConstraint=eastwest;" parent="mCtXMymxD6PoVu8J4Z9Z-104" vertex="1">
          <mxGeometry y="178" width="370" height="24" as="geometry" />
        </mxCell>
        <mxCell id="mCtXMymxD6PoVu8J4Z9Z-155" value="- UpdateRotationSpeed() : void" style="text;strokeColor=none;fillColor=none;align=left;verticalAlign=top;spacingLeft=4;spacingRight=4;overflow=hidden;rotatable=0;points=[[0,0.5],[1,0.5]];portConstraint=eastwest;" parent="mCtXMymxD6PoVu8J4Z9Z-104" vertex="1">
          <mxGeometry y="202" width="370" height="24" as="geometry" />
        </mxCell>
        <mxCell id="mCtXMymxD6PoVu8J4Z9Z-161" value="- OnUpdateInputJoy(Vector3) : void" style="text;strokeColor=none;fillColor=none;align=left;verticalAlign=top;spacingLeft=4;spacingRight=4;overflow=hidden;rotatable=0;points=[[0,0.5],[1,0.5]];portConstraint=eastwest;" parent="mCtXMymxD6PoVu8J4Z9Z-104" vertex="1">
          <mxGeometry y="226" width="370" height="24" as="geometry" />
        </mxCell>
        <mxCell id="mCtXMymxD6PoVu8J4Z9Z-162" value="- OnInputUpJoy(Vector3) : void" style="text;strokeColor=none;fillColor=none;align=left;verticalAlign=top;spacingLeft=4;spacingRight=4;overflow=hidden;rotatable=0;points=[[0,0.5],[1,0.5]];portConstraint=eastwest;" parent="mCtXMymxD6PoVu8J4Z9Z-104" vertex="1">
          <mxGeometry y="250" width="370" height="24" as="geometry" />
        </mxCell>
        <mxCell id="mCtXMymxD6PoVu8J4Z9Z-115" value="PlayerConfig" style="swimlane;fontStyle=0;childLayout=stackLayout;horizontal=1;startSize=26;fillColor=none;horizontalStack=0;resizeParent=1;resizeParentMax=0;resizeLast=0;collapsible=1;marginBottom=0;fontSize=14;" parent="WIyWlLk6GJQsqaUBKTNV-1" vertex="1">
          <mxGeometry x="-2100" y="-819" width="480" height="132" as="geometry" />
        </mxCell>
        <mxCell id="mCtXMymxD6PoVu8J4Z9Z-119" value="+ &lt;&lt;Get&gt;&gt; PlayerAttackConfig : PlayerAttackConfig " style="text;strokeColor=none;fillColor=none;align=left;verticalAlign=top;spacingLeft=4;spacingRight=4;overflow=hidden;rotatable=0;points=[[0,0.5],[1,0.5]];portConstraint=eastwest;fontSize=14;" parent="mCtXMymxD6PoVu8J4Z9Z-115" vertex="1">
          <mxGeometry y="26" width="480" height="26" as="geometry" />
        </mxCell>
        <mxCell id="mCtXMymxD6PoVu8J4Z9Z-120" value="+ &lt;&lt;Get&gt;&gt;PlayerMoveConfig: PlayerMoveConfig" style="text;strokeColor=none;fillColor=none;align=left;verticalAlign=top;spacingLeft=4;spacingRight=4;overflow=hidden;rotatable=0;points=[[0,0.5],[1,0.5]];portConstraint=eastwest;fontSize=14;" parent="mCtXMymxD6PoVu8J4Z9Z-115" vertex="1">
          <mxGeometry y="52" width="480" height="28" as="geometry" />
        </mxCell>
        <mxCell id="mCtXMymxD6PoVu8J4Z9Z-140" value="+ &lt;&lt;Get&gt;&gt; PlayerCrowdConfig : PlayerCrowdConfig " style="text;strokeColor=none;fillColor=none;align=left;verticalAlign=top;spacingLeft=4;spacingRight=4;overflow=hidden;rotatable=0;points=[[0,0.5],[1,0.5]];portConstraint=eastwest;fontSize=14;" parent="mCtXMymxD6PoVu8J4Z9Z-115" vertex="1">
          <mxGeometry y="80" width="480" height="26" as="geometry" />
        </mxCell>
        <mxCell id="mCtXMymxD6PoVu8J4Z9Z-141" value="+ &lt;&lt;Get&gt;&gt; PlayerHpConfig : PlayerHpConfig " style="text;strokeColor=none;fillColor=none;align=left;verticalAlign=top;spacingLeft=4;spacingRight=4;overflow=hidden;rotatable=0;points=[[0,0.5],[1,0.5]];portConstraint=eastwest;fontSize=14;" parent="mCtXMymxD6PoVu8J4Z9Z-115" vertex="1">
          <mxGeometry y="106" width="480" height="26" as="geometry" />
        </mxCell>
        <mxCell id="mCtXMymxD6PoVu8J4Z9Z-121" value="PlayerMoveConfig" style="swimlane;fontStyle=0;childLayout=stackLayout;horizontal=1;startSize=26;fillColor=none;horizontalStack=0;resizeParent=1;resizeParentMax=0;resizeLast=0;collapsible=1;marginBottom=0;fontSize=14;" parent="WIyWlLk6GJQsqaUBKTNV-1" vertex="1">
          <mxGeometry x="-1190" y="-792" width="320" height="78" as="geometry" />
        </mxCell>
        <mxCell id="mCtXMymxD6PoVu8J4Z9Z-122" value="+ &lt;&lt;Get&gt;&gt; StartMoveSpeed : float" style="text;strokeColor=none;fillColor=none;align=left;verticalAlign=top;spacingLeft=4;spacingRight=4;overflow=hidden;rotatable=0;points=[[0,0.5],[1,0.5]];portConstraint=eastwest;fontSize=14;" parent="mCtXMymxD6PoVu8J4Z9Z-121" vertex="1">
          <mxGeometry y="26" width="320" height="26" as="geometry" />
        </mxCell>
        <mxCell id="mCtXMymxD6PoVu8J4Z9Z-123" value="+ &lt;&lt;Get&gt;&gt; StartRotationSpeed : float" style="text;strokeColor=none;fillColor=none;align=left;verticalAlign=top;spacingLeft=4;spacingRight=4;overflow=hidden;rotatable=0;points=[[0,0.5],[1,0.5]];portConstraint=eastwest;fontSize=14;" parent="mCtXMymxD6PoVu8J4Z9Z-121" vertex="1">
          <mxGeometry y="52" width="320" height="26" as="geometry" />
        </mxCell>
        <mxCell id="mCtXMymxD6PoVu8J4Z9Z-126" value="PlayerAttackConfig" style="swimlane;fontStyle=0;childLayout=stackLayout;horizontal=1;startSize=26;fillColor=none;horizontalStack=0;resizeParent=1;resizeParentMax=0;resizeLast=0;collapsible=1;marginBottom=0;fontSize=14;" parent="WIyWlLk6GJQsqaUBKTNV-1" vertex="1">
          <mxGeometry x="-1190" y="-952" width="320" height="104" as="geometry" />
        </mxCell>
        <mxCell id="mCtXMymxD6PoVu8J4Z9Z-129" value="+ &lt;&lt;Get&gt;&gt; EnemyDetectionDistance : float" style="text;strokeColor=none;fillColor=none;align=left;verticalAlign=top;spacingLeft=4;spacingRight=4;overflow=hidden;rotatable=0;points=[[0,0.5],[1,0.5]];portConstraint=eastwest;fontSize=14;" parent="mCtXMymxD6PoVu8J4Z9Z-126" vertex="1">
          <mxGeometry y="26" width="320" height="26" as="geometry" />
        </mxCell>
        <mxCell id="mCtXMymxD6PoVu8J4Z9Z-130" value="+ &lt;&lt;Get&gt;&gt; StartRateOfFire : float" style="text;strokeColor=none;fillColor=none;align=left;verticalAlign=top;spacingLeft=4;spacingRight=4;overflow=hidden;rotatable=0;points=[[0,0.5],[1,0.5]];portConstraint=eastwest;fontSize=14;" parent="mCtXMymxD6PoVu8J4Z9Z-126" vertex="1">
          <mxGeometry y="52" width="320" height="26" as="geometry" />
        </mxCell>
        <mxCell id="mCtXMymxD6PoVu8J4Z9Z-139" value="+ &lt;&lt;Get&gt;&gt; StartDamage : float" style="text;strokeColor=none;fillColor=none;align=left;verticalAlign=top;spacingLeft=4;spacingRight=4;overflow=hidden;rotatable=0;points=[[0,0.5],[1,0.5]];portConstraint=eastwest;fontSize=14;" parent="mCtXMymxD6PoVu8J4Z9Z-126" vertex="1">
          <mxGeometry y="78" width="320" height="26" as="geometry" />
        </mxCell>
        <mxCell id="mCtXMymxD6PoVu8J4Z9Z-131" value="PlayerCrowdConfig" style="swimlane;fontStyle=0;childLayout=stackLayout;horizontal=1;startSize=26;fillColor=none;horizontalStack=0;resizeParent=1;resizeParentMax=0;resizeLast=0;collapsible=1;marginBottom=0;fontSize=14;" parent="WIyWlLk6GJQsqaUBKTNV-1" vertex="1">
          <mxGeometry x="-1190" y="-652" width="320" height="52" as="geometry" />
        </mxCell>
        <mxCell id="mCtXMymxD6PoVu8J4Z9Z-132" value="+ &lt;&lt;Get&gt;&gt; StartCrowdCapacity : int" style="text;strokeColor=none;fillColor=none;align=left;verticalAlign=top;spacingLeft=4;spacingRight=4;overflow=hidden;rotatable=0;points=[[0,0.5],[1,0.5]];portConstraint=eastwest;fontSize=14;" parent="mCtXMymxD6PoVu8J4Z9Z-131" vertex="1">
          <mxGeometry y="26" width="320" height="26" as="geometry" />
        </mxCell>
        <mxCell id="mCtXMymxD6PoVu8J4Z9Z-142" value="PlayerHpConfig" style="swimlane;fontStyle=0;childLayout=stackLayout;horizontal=1;startSize=26;fillColor=none;horizontalStack=0;resizeParent=1;resizeParentMax=0;resizeLast=0;collapsible=1;marginBottom=0;fontSize=14;" parent="WIyWlLk6GJQsqaUBKTNV-1" vertex="1">
          <mxGeometry x="-1190" y="-542" width="320" height="52" as="geometry" />
        </mxCell>
        <mxCell id="mCtXMymxD6PoVu8J4Z9Z-143" value="+ &lt;&lt;Get&gt;&gt; StartHP : float" style="text;strokeColor=none;fillColor=none;align=left;verticalAlign=top;spacingLeft=4;spacingRight=4;overflow=hidden;rotatable=0;points=[[0,0.5],[1,0.5]];portConstraint=eastwest;fontSize=14;" parent="mCtXMymxD6PoVu8J4Z9Z-142" vertex="1">
          <mxGeometry y="26" width="320" height="26" as="geometry" />
        </mxCell>
        <mxCell id="mCtXMymxD6PoVu8J4Z9Z-146" value="" style="endArrow=none;html=1;edgeStyle=orthogonalEdgeStyle;rounded=0;fontSize=14;" parent="WIyWlLk6GJQsqaUBKTNV-1" edge="1">
          <mxGeometry relative="1" as="geometry">
            <mxPoint x="-1190" y="-887" as="sourcePoint" />
            <mxPoint x="-1190" y="-517" as="targetPoint" />
            <Array as="points">
              <mxPoint x="-1290" y="-887" />
              <mxPoint x="-1290" y="-517" />
            </Array>
          </mxGeometry>
        </mxCell>
        <mxCell id="mCtXMymxD6PoVu8J4Z9Z-151" value="" style="endArrow=diamondThin;endFill=0;endSize=24;html=1;rounded=0;fontSize=14;" parent="WIyWlLk6GJQsqaUBKTNV-1" edge="1">
          <mxGeometry width="160" relative="1" as="geometry">
            <mxPoint x="-1190" y="-752" as="sourcePoint" />
            <mxPoint x="-1630" y="-752" as="targetPoint" />
          </mxGeometry>
        </mxCell>
        <mxCell id="mCtXMymxD6PoVu8J4Z9Z-160" value="" style="endArrow=open;endFill=1;endSize=12;html=1;rounded=0;fontSize=14;entryX=1;entryY=0.5;entryDx=0;entryDy=0;" parent="WIyWlLk6GJQsqaUBKTNV-1" target="mCtXMymxD6PoVu8J4Z9Z-122" edge="1">
          <mxGeometry width="160" relative="1" as="geometry">
            <mxPoint x="-630" y="-753" as="sourcePoint" />
            <mxPoint x="-620" y="-890" as="targetPoint" />
          </mxGeometry>
        </mxCell>
        <mxCell id="mCtXMymxD6PoVu8J4Z9Z-163" value="PlayerAttackComponent" style="swimlane;fontStyle=1;align=center;verticalAlign=top;childLayout=stackLayout;horizontal=1;startSize=26;horizontalStack=0;resizeParent=1;resizeParentMax=0;resizeLast=0;collapsible=1;marginBottom=0;" parent="WIyWlLk6GJQsqaUBKTNV-1" vertex="1">
          <mxGeometry x="-670" y="-1540" width="370" height="202" as="geometry" />
        </mxCell>
        <mxCell id="mCtXMymxD6PoVu8J4Z9Z-164" value="- playerAttackConfig : PlayerAttackConfig" style="text;strokeColor=none;fillColor=none;align=left;verticalAlign=top;spacingLeft=4;spacingRight=4;overflow=hidden;rotatable=0;points=[[0,0.5],[1,0.5]];portConstraint=eastwest;" parent="mCtXMymxD6PoVu8J4Z9Z-163" vertex="1">
          <mxGeometry y="26" width="370" height="24" as="geometry" />
        </mxCell>
        <mxCell id="rwpX8sAkl0MTFjeVuuJa-13" value="- playerAnimationComponent : PlayerAnimationComponent" style="text;strokeColor=none;fillColor=none;align=left;verticalAlign=top;spacingLeft=4;spacingRight=4;overflow=hidden;rotatable=0;points=[[0,0.5],[1,0.5]];portConstraint=eastwest;" parent="mCtXMymxD6PoVu8J4Z9Z-163" vertex="1">
          <mxGeometry y="50" width="370" height="24" as="geometry" />
        </mxCell>
        <mxCell id="mCtXMymxD6PoVu8J4Z9Z-165" value="- detectionDistance : float" style="text;strokeColor=none;fillColor=none;align=left;verticalAlign=top;spacingLeft=4;spacingRight=4;overflow=hidden;rotatable=0;points=[[0,0.5],[1,0.5]];portConstraint=eastwest;" parent="mCtXMymxD6PoVu8J4Z9Z-163" vertex="1">
          <mxGeometry y="74" width="370" height="24" as="geometry" />
        </mxCell>
        <mxCell id="mCtXMymxD6PoVu8J4Z9Z-166" value="- rateOfFire : float" style="text;strokeColor=none;fillColor=none;align=left;verticalAlign=top;spacingLeft=4;spacingRight=4;overflow=hidden;rotatable=0;points=[[0,0.5],[1,0.5]];portConstraint=eastwest;" parent="mCtXMymxD6PoVu8J4Z9Z-163" vertex="1">
          <mxGeometry y="98" width="370" height="24" as="geometry" />
        </mxCell>
        <mxCell id="IOBqYMl_oJ27bjHW-lKR-46" value="- damage : float" style="text;strokeColor=none;fillColor=none;align=left;verticalAlign=top;spacingLeft=4;spacingRight=4;overflow=hidden;rotatable=0;points=[[0,0.5],[1,0.5]];portConstraint=eastwest;" vertex="1" parent="mCtXMymxD6PoVu8J4Z9Z-163">
          <mxGeometry y="122" width="370" height="24" as="geometry" />
        </mxCell>
        <mxCell id="mCtXMymxD6PoVu8J4Z9Z-169" value="" style="line;strokeWidth=1;fillColor=none;align=left;verticalAlign=middle;spacingTop=-1;spacingLeft=3;spacingRight=3;rotatable=0;labelPosition=right;points=[];portConstraint=eastwest;" parent="mCtXMymxD6PoVu8J4Z9Z-163" vertex="1">
          <mxGeometry y="146" width="370" height="8" as="geometry" />
        </mxCell>
        <mxCell id="mCtXMymxD6PoVu8J4Z9Z-170" value="- DetectionEnemies() : bool" style="text;strokeColor=none;fillColor=none;align=left;verticalAlign=top;spacingLeft=4;spacingRight=4;overflow=hidden;rotatable=0;points=[[0,0.5],[1,0.5]];portConstraint=eastwest;" parent="mCtXMymxD6PoVu8J4Z9Z-163" vertex="1">
          <mxGeometry y="154" width="370" height="24" as="geometry" />
        </mxCell>
        <mxCell id="IOBqYMl_oJ27bjHW-lKR-45" value="- AttackEnemies() : void" style="text;strokeColor=none;fillColor=none;align=left;verticalAlign=top;spacingLeft=4;spacingRight=4;overflow=hidden;rotatable=0;points=[[0,0.5],[1,0.5]];portConstraint=eastwest;" vertex="1" parent="mCtXMymxD6PoVu8J4Z9Z-163">
          <mxGeometry y="178" width="370" height="24" as="geometry" />
        </mxCell>
        <mxCell id="mCtXMymxD6PoVu8J4Z9Z-175" value="InputManager" style="swimlane;fontStyle=1;align=center;verticalAlign=top;childLayout=stackLayout;horizontal=1;startSize=26;horizontalStack=0;resizeParent=1;resizeParentMax=0;resizeLast=0;collapsible=1;marginBottom=0;" parent="WIyWlLk6GJQsqaUBKTNV-1" vertex="1">
          <mxGeometry x="40" y="-416" width="430" height="106" as="geometry" />
        </mxCell>
        <mxCell id="mCtXMymxD6PoVu8J4Z9Z-176" value="" style="line;strokeWidth=1;fillColor=none;align=left;verticalAlign=middle;spacingTop=-1;spacingLeft=3;spacingRight=3;rotatable=0;labelPosition=right;points=[];portConstraint=eastwest;" parent="mCtXMymxD6PoVu8J4Z9Z-175" vertex="1">
          <mxGeometry y="26" width="430" height="8" as="geometry" />
        </mxCell>
        <mxCell id="mCtXMymxD6PoVu8J4Z9Z-177" value="- OnInputStart(Vector3) : void" style="text;strokeColor=none;fillColor=none;align=left;verticalAlign=top;spacingLeft=4;spacingRight=4;overflow=hidden;rotatable=0;points=[[0,0.5],[1,0.5]];portConstraint=eastwest;fontStyle=4" parent="mCtXMymxD6PoVu8J4Z9Z-175" vertex="1">
          <mxGeometry y="34" width="430" height="24" as="geometry" />
        </mxCell>
        <mxCell id="mCtXMymxD6PoVu8J4Z9Z-178" value="- OnInputUpdate(Vector3) : void" style="text;strokeColor=none;fillColor=none;align=left;verticalAlign=top;spacingLeft=4;spacingRight=4;overflow=hidden;rotatable=0;points=[[0,0.5],[1,0.5]];portConstraint=eastwest;fontStyle=4" parent="mCtXMymxD6PoVu8J4Z9Z-175" vertex="1">
          <mxGeometry y="58" width="430" height="24" as="geometry" />
        </mxCell>
        <mxCell id="mCtXMymxD6PoVu8J4Z9Z-179" value="- OnInputEnd(Vector3) : void" style="text;strokeColor=none;fillColor=none;align=left;verticalAlign=top;spacingLeft=4;spacingRight=4;overflow=hidden;rotatable=0;points=[[0,0.5],[1,0.5]];portConstraint=eastwest;fontStyle=4" parent="mCtXMymxD6PoVu8J4Z9Z-175" vertex="1">
          <mxGeometry y="82" width="430" height="24" as="geometry" />
        </mxCell>
        <mxCell id="mCtXMymxD6PoVu8J4Z9Z-181" value="Use" style="endArrow=open;endSize=12;dashed=1;html=1;rounded=0;fontSize=14;exitX=0.894;exitY=0.003;exitDx=0;exitDy=0;exitPerimeter=0;entryX=0;entryY=0.5;entryDx=0;entryDy=0;" parent="WIyWlLk6GJQsqaUBKTNV-1" source="mCtXMymxD6PoVu8J4Z9Z-175" target="mCtXMymxD6PoVu8J4Z9Z-64" edge="1">
          <mxGeometry width="160" relative="1" as="geometry">
            <mxPoint x="180" y="-270" as="sourcePoint" />
            <mxPoint x="340" y="-270" as="targetPoint" />
          </mxGeometry>
        </mxCell>
        <mxCell id="mCtXMymxD6PoVu8J4Z9Z-182" value="Use" style="endArrow=open;endSize=12;dashed=1;html=1;rounded=0;fontSize=14;exitX=0.999;exitY=0.542;exitDx=0;exitDy=0;exitPerimeter=0;entryX=0;entryY=0.5;entryDx=0;entryDy=0;" parent="WIyWlLk6GJQsqaUBKTNV-1" source="mCtXMymxD6PoVu8J4Z9Z-108" target="mCtXMymxD6PoVu8J4Z9Z-63" edge="1">
          <mxGeometry width="160" relative="1" as="geometry">
            <mxPoint x="-80" y="-600" as="sourcePoint" />
            <mxPoint x="80" y="-600" as="targetPoint" />
          </mxGeometry>
        </mxCell>
        <mxCell id="rwpX8sAkl0MTFjeVuuJa-0" value="PlayerAnimationComponent" style="swimlane;fontStyle=1;align=center;verticalAlign=top;childLayout=stackLayout;horizontal=1;startSize=26;horizontalStack=0;resizeParent=1;resizeParentMax=0;resizeLast=0;collapsible=1;marginBottom=0;" parent="WIyWlLk6GJQsqaUBKTNV-1" vertex="1">
          <mxGeometry x="-670" y="-1200" width="370" height="154" as="geometry" />
        </mxCell>
        <mxCell id="rwpX8sAkl0MTFjeVuuJa-5" value="- animator : Animator" style="text;strokeColor=none;fillColor=none;align=left;verticalAlign=top;spacingLeft=4;spacingRight=4;overflow=hidden;rotatable=0;points=[[0,0.5],[1,0.5]];portConstraint=eastwest;" parent="rwpX8sAkl0MTFjeVuuJa-0" vertex="1">
          <mxGeometry y="26" width="370" height="24" as="geometry" />
        </mxCell>
        <mxCell id="rwpX8sAkl0MTFjeVuuJa-6" value="" style="line;strokeWidth=1;fillColor=none;align=left;verticalAlign=middle;spacingTop=-1;spacingLeft=3;spacingRight=3;rotatable=0;labelPosition=right;points=[];portConstraint=eastwest;" parent="rwpX8sAkl0MTFjeVuuJa-0" vertex="1">
          <mxGeometry y="50" width="370" height="8" as="geometry" />
        </mxCell>
        <mxCell id="rwpX8sAkl0MTFjeVuuJa-7" value="+ EnableMoveAnimation(bool) : void" style="text;strokeColor=none;fillColor=none;align=left;verticalAlign=top;spacingLeft=4;spacingRight=4;overflow=hidden;rotatable=0;points=[[0,0.5],[1,0.5]];portConstraint=eastwest;" parent="rwpX8sAkl0MTFjeVuuJa-0" vertex="1">
          <mxGeometry y="58" width="370" height="24" as="geometry" />
        </mxCell>
        <mxCell id="rwpX8sAkl0MTFjeVuuJa-8" value="+ EnableIdleAnimation(bool) : void" style="text;strokeColor=none;fillColor=none;align=left;verticalAlign=top;spacingLeft=4;spacingRight=4;overflow=hidden;rotatable=0;points=[[0,0.5],[1,0.5]];portConstraint=eastwest;" parent="rwpX8sAkl0MTFjeVuuJa-0" vertex="1">
          <mxGeometry y="82" width="370" height="24" as="geometry" />
        </mxCell>
        <mxCell id="rwpX8sAkl0MTFjeVuuJa-9" value="+ EnableAttackAnimation(bool) : void" style="text;strokeColor=none;fillColor=none;align=left;verticalAlign=top;spacingLeft=4;spacingRight=4;overflow=hidden;rotatable=0;points=[[0,0.5],[1,0.5]];portConstraint=eastwest;" parent="rwpX8sAkl0MTFjeVuuJa-0" vertex="1">
          <mxGeometry y="106" width="370" height="24" as="geometry" />
        </mxCell>
        <mxCell id="rwpX8sAkl0MTFjeVuuJa-14" value="+ ResetAnimations() : void" style="text;strokeColor=none;fillColor=none;align=left;verticalAlign=top;spacingLeft=4;spacingRight=4;overflow=hidden;rotatable=0;points=[[0,0.5],[1,0.5]];portConstraint=eastwest;" parent="rwpX8sAkl0MTFjeVuuJa-0" vertex="1">
          <mxGeometry y="130" width="370" height="24" as="geometry" />
        </mxCell>
        <mxCell id="rwpX8sAkl0MTFjeVuuJa-15" value="PlayerCrowdComponent" style="swimlane;fontStyle=1;align=center;verticalAlign=top;childLayout=stackLayout;horizontal=1;startSize=26;horizontalStack=0;resizeParent=1;resizeParentMax=0;resizeLast=0;collapsible=1;marginBottom=0;" parent="WIyWlLk6GJQsqaUBKTNV-1" vertex="1">
          <mxGeometry x="-620" y="-280" width="370" height="154" as="geometry" />
        </mxCell>
        <mxCell id="rwpX8sAkl0MTFjeVuuJa-16" value="- soldierCrowd: SoldiersCrowd " style="text;strokeColor=none;fillColor=none;align=left;verticalAlign=top;spacingLeft=4;spacingRight=4;overflow=hidden;rotatable=0;points=[[0,0.5],[1,0.5]];portConstraint=eastwest;" parent="rwpX8sAkl0MTFjeVuuJa-15" vertex="1">
          <mxGeometry y="26" width="370" height="24" as="geometry" />
        </mxCell>
        <mxCell id="rwpX8sAkl0MTFjeVuuJa-17" value="" style="line;strokeWidth=1;fillColor=none;align=left;verticalAlign=middle;spacingTop=-1;spacingLeft=3;spacingRight=3;rotatable=0;labelPosition=right;points=[];portConstraint=eastwest;" parent="rwpX8sAkl0MTFjeVuuJa-15" vertex="1">
          <mxGeometry y="50" width="370" height="8" as="geometry" />
        </mxCell>
        <mxCell id="IOBqYMl_oJ27bjHW-lKR-38" value="- CreateCrowd(int) : void" style="text;strokeColor=none;fillColor=none;align=left;verticalAlign=top;spacingLeft=4;spacingRight=4;overflow=hidden;rotatable=0;points=[[0,0.5],[1,0.5]];portConstraint=eastwest;" vertex="1" parent="rwpX8sAkl0MTFjeVuuJa-15">
          <mxGeometry y="58" width="370" height="24" as="geometry" />
        </mxCell>
        <mxCell id="rwpX8sAkl0MTFjeVuuJa-18" value="+ AddSoldier(Soldier soldier) : void" style="text;strokeColor=none;fillColor=none;align=left;verticalAlign=top;spacingLeft=4;spacingRight=4;overflow=hidden;rotatable=0;points=[[0,0.5],[1,0.5]];portConstraint=eastwest;" parent="rwpX8sAkl0MTFjeVuuJa-15" vertex="1">
          <mxGeometry y="82" width="370" height="24" as="geometry" />
        </mxCell>
        <mxCell id="rwpX8sAkl0MTFjeVuuJa-19" value="+ RemoveSoldier(Soldier soldierl) : void" style="text;strokeColor=none;fillColor=none;align=left;verticalAlign=top;spacingLeft=4;spacingRight=4;overflow=hidden;rotatable=0;points=[[0,0.5],[1,0.5]];portConstraint=eastwest;" parent="rwpX8sAkl0MTFjeVuuJa-15" vertex="1">
          <mxGeometry y="106" width="370" height="24" as="geometry" />
        </mxCell>
        <mxCell id="rwpX8sAkl0MTFjeVuuJa-32" value="+ MoveCrowd() : void" style="text;strokeColor=none;fillColor=none;align=left;verticalAlign=top;spacingLeft=4;spacingRight=4;overflow=hidden;rotatable=0;points=[[0,0.5],[1,0.5]];portConstraint=eastwest;" parent="rwpX8sAkl0MTFjeVuuJa-15" vertex="1">
          <mxGeometry y="130" width="370" height="24" as="geometry" />
        </mxCell>
        <mxCell id="rwpX8sAkl0MTFjeVuuJa-27" value="Cell" style="swimlane;fontStyle=1;align=center;verticalAlign=top;childLayout=stackLayout;horizontal=1;startSize=26;horizontalStack=0;resizeParent=1;resizeParentMax=0;resizeLast=0;collapsible=1;marginBottom=0;" parent="WIyWlLk6GJQsqaUBKTNV-1" vertex="1">
          <mxGeometry x="-1400" y="-206" width="370" height="82" as="geometry" />
        </mxCell>
        <mxCell id="rwpX8sAkl0MTFjeVuuJa-28" value="- cellChildren: ICellChildren" style="text;strokeColor=none;fillColor=none;align=left;verticalAlign=top;spacingLeft=4;spacingRight=4;overflow=hidden;rotatable=0;points=[[0,0.5],[1,0.5]];portConstraint=eastwest;" parent="rwpX8sAkl0MTFjeVuuJa-27" vertex="1">
          <mxGeometry y="26" width="370" height="24" as="geometry" />
        </mxCell>
        <mxCell id="rwpX8sAkl0MTFjeVuuJa-29" value="" style="line;strokeWidth=1;fillColor=none;align=left;verticalAlign=middle;spacingTop=-1;spacingLeft=3;spacingRight=3;rotatable=0;labelPosition=right;points=[];portConstraint=eastwest;" parent="rwpX8sAkl0MTFjeVuuJa-27" vertex="1">
          <mxGeometry y="50" width="370" height="8" as="geometry" />
        </mxCell>
        <mxCell id="rwpX8sAkl0MTFjeVuuJa-33" value="+ IsFree() : bool" style="text;strokeColor=none;fillColor=none;align=left;verticalAlign=top;spacingLeft=4;spacingRight=4;overflow=hidden;rotatable=0;points=[[0,0.5],[1,0.5]];portConstraint=eastwest;" parent="rwpX8sAkl0MTFjeVuuJa-27" vertex="1">
          <mxGeometry y="58" width="370" height="24" as="geometry" />
        </mxCell>
        <mxCell id="rwpX8sAkl0MTFjeVuuJa-34" value="CellsMesh" style="swimlane;fontStyle=1;align=center;verticalAlign=top;childLayout=stackLayout;horizontal=1;startSize=26;horizontalStack=0;resizeParent=1;resizeParentMax=0;resizeLast=0;collapsible=1;marginBottom=0;" parent="WIyWlLk6GJQsqaUBKTNV-1" vertex="1">
          <mxGeometry x="-980" y="-30" width="370" height="322" as="geometry" />
        </mxCell>
        <mxCell id="rwpX8sAkl0MTFjeVuuJa-35" value="- cells: List &lt;Cell&gt; " style="text;strokeColor=none;fillColor=none;align=left;verticalAlign=top;spacingLeft=4;spacingRight=4;overflow=hidden;rotatable=0;points=[[0,0.5],[1,0.5]];portConstraint=eastwest;" parent="rwpX8sAkl0MTFjeVuuJa-34" vertex="1">
          <mxGeometry y="26" width="370" height="24" as="geometry" />
        </mxCell>
        <mxCell id="IOBqYMl_oJ27bjHW-lKR-40" value="- verticalSize: int" style="text;strokeColor=none;fillColor=none;align=left;verticalAlign=top;spacingLeft=4;spacingRight=4;overflow=hidden;rotatable=0;points=[[0,0.5],[1,0.5]];portConstraint=eastwest;" vertex="1" parent="rwpX8sAkl0MTFjeVuuJa-34">
          <mxGeometry y="50" width="370" height="24" as="geometry" />
        </mxCell>
        <mxCell id="IOBqYMl_oJ27bjHW-lKR-41" value="- horizontalSize: int" style="text;strokeColor=none;fillColor=none;align=left;verticalAlign=top;spacingLeft=4;spacingRight=4;overflow=hidden;rotatable=0;points=[[0,0.5],[1,0.5]];portConstraint=eastwest;" vertex="1" parent="rwpX8sAkl0MTFjeVuuJa-34">
          <mxGeometry y="74" width="370" height="24" as="geometry" />
        </mxCell>
        <mxCell id="IOBqYMl_oJ27bjHW-lKR-42" value="- depthSize: int" style="text;strokeColor=none;fillColor=none;align=left;verticalAlign=top;spacingLeft=4;spacingRight=4;overflow=hidden;rotatable=0;points=[[0,0.5],[1,0.5]];portConstraint=eastwest;" vertex="1" parent="rwpX8sAkl0MTFjeVuuJa-34">
          <mxGeometry y="98" width="370" height="24" as="geometry" />
        </mxCell>
        <mxCell id="IOBqYMl_oJ27bjHW-lKR-44" value="- horizontalSpace: float" style="text;strokeColor=none;fillColor=none;align=left;verticalAlign=top;spacingLeft=4;spacingRight=4;overflow=hidden;rotatable=0;points=[[0,0.5],[1,0.5]];portConstraint=eastwest;" vertex="1" parent="rwpX8sAkl0MTFjeVuuJa-34">
          <mxGeometry y="122" width="370" height="24" as="geometry" />
        </mxCell>
        <mxCell id="IOBqYMl_oJ27bjHW-lKR-43" value="- vertialSpace: float" style="text;strokeColor=none;fillColor=none;align=left;verticalAlign=top;spacingLeft=4;spacingRight=4;overflow=hidden;rotatable=0;points=[[0,0.5],[1,0.5]];portConstraint=eastwest;" vertex="1" parent="rwpX8sAkl0MTFjeVuuJa-34">
          <mxGeometry y="146" width="370" height="24" as="geometry" />
        </mxCell>
        <mxCell id="rwpX8sAkl0MTFjeVuuJa-36" value="" style="line;strokeWidth=1;fillColor=none;align=left;verticalAlign=middle;spacingTop=-1;spacingLeft=3;spacingRight=3;rotatable=0;labelPosition=right;points=[];portConstraint=eastwest;" parent="rwpX8sAkl0MTFjeVuuJa-34" vertex="1">
          <mxGeometry y="170" width="370" height="8" as="geometry" />
        </mxCell>
        <mxCell id="rwpX8sAkl0MTFjeVuuJa-37" value="+ CreateMesh(int) : void" style="text;strokeColor=none;fillColor=none;align=left;verticalAlign=top;spacingLeft=4;spacingRight=4;overflow=hidden;rotatable=0;points=[[0,0.5],[1,0.5]];portConstraint=eastwest;" parent="rwpX8sAkl0MTFjeVuuJa-34" vertex="1">
          <mxGeometry y="178" width="370" height="24" as="geometry" />
        </mxCell>
        <mxCell id="rwpX8sAkl0MTFjeVuuJa-38" value="+ CreateNewCell() : void" style="text;strokeColor=none;fillColor=none;align=left;verticalAlign=top;spacingLeft=4;spacingRight=4;overflow=hidden;rotatable=0;points=[[0,0.5],[1,0.5]];portConstraint=eastwest;" parent="rwpX8sAkl0MTFjeVuuJa-34" vertex="1">
          <mxGeometry y="202" width="370" height="24" as="geometry" />
        </mxCell>
        <mxCell id="rwpX8sAkl0MTFjeVuuJa-39" value="+ RemoveCell(index) : void" style="text;strokeColor=none;fillColor=none;align=left;verticalAlign=top;spacingLeft=4;spacingRight=4;overflow=hidden;rotatable=0;points=[[0,0.5],[1,0.5]];portConstraint=eastwest;" parent="rwpX8sAkl0MTFjeVuuJa-34" vertex="1">
          <mxGeometry y="226" width="370" height="24" as="geometry" />
        </mxCell>
        <mxCell id="IOBqYMl_oJ27bjHW-lKR-0" value="+ AddChildrenToCell(index, ICellChildren) : bool" style="text;strokeColor=none;fillColor=none;align=left;verticalAlign=top;spacingLeft=4;spacingRight=4;overflow=hidden;rotatable=0;points=[[0,0.5],[1,0.5]];portConstraint=eastwest;" vertex="1" parent="rwpX8sAkl0MTFjeVuuJa-34">
          <mxGeometry y="250" width="370" height="24" as="geometry" />
        </mxCell>
        <mxCell id="IOBqYMl_oJ27bjHW-lKR-1" value="+ RemoveChildrenFromCell(index) : ICellChildren" style="text;strokeColor=none;fillColor=none;align=left;verticalAlign=top;spacingLeft=4;spacingRight=4;overflow=hidden;rotatable=0;points=[[0,0.5],[1,0.5]];portConstraint=eastwest;" vertex="1" parent="rwpX8sAkl0MTFjeVuuJa-34">
          <mxGeometry y="274" width="370" height="24" as="geometry" />
        </mxCell>
        <mxCell id="IOBqYMl_oJ27bjHW-lKR-2" value="+ RemoveChildrenFromCell(ICellChildren) : int" style="text;strokeColor=none;fillColor=none;align=left;verticalAlign=top;spacingLeft=4;spacingRight=4;overflow=hidden;rotatable=0;points=[[0,0.5],[1,0.5]];portConstraint=eastwest;" vertex="1" parent="rwpX8sAkl0MTFjeVuuJa-34">
          <mxGeometry y="298" width="370" height="24" as="geometry" />
        </mxCell>
        <mxCell id="rwpX8sAkl0MTFjeVuuJa-46" value="" style="endArrow=classic;html=1;rounded=0;exitX=0.5;exitY=0;exitDx=0;exitDy=0;entryX=1;entryY=0.5;entryDx=0;entryDy=0;" parent="WIyWlLk6GJQsqaUBKTNV-1" source="rwpX8sAkl0MTFjeVuuJa-34" target="rwpX8sAkl0MTFjeVuuJa-33" edge="1">
          <mxGeometry width="50" height="50" relative="1" as="geometry">
            <mxPoint x="-580" y="-150" as="sourcePoint" />
            <mxPoint x="-530" y="-200" as="targetPoint" />
          </mxGeometry>
        </mxCell>
        <mxCell id="rwpX8sAkl0MTFjeVuuJa-47" value="SoldiersCrowd" style="swimlane;fontStyle=1;align=center;verticalAlign=top;childLayout=stackLayout;horizontal=1;startSize=26;horizontalStack=0;resizeParent=1;resizeParentMax=0;resizeLast=0;collapsible=1;marginBottom=0;" parent="WIyWlLk6GJQsqaUBKTNV-1" vertex="1">
          <mxGeometry x="-530" y="50" width="370" height="130" as="geometry" />
        </mxCell>
        <mxCell id="rwpX8sAkl0MTFjeVuuJa-48" value="- cellsMesh: CellsMesh" style="text;strokeColor=none;fillColor=none;align=left;verticalAlign=top;spacingLeft=4;spacingRight=4;overflow=hidden;rotatable=0;points=[[0,0.5],[1,0.5]];portConstraint=eastwest;" parent="rwpX8sAkl0MTFjeVuuJa-47" vertex="1">
          <mxGeometry y="26" width="370" height="24" as="geometry" />
        </mxCell>
        <mxCell id="rwpX8sAkl0MTFjeVuuJa-49" value="" style="line;strokeWidth=1;fillColor=none;align=left;verticalAlign=middle;spacingTop=-1;spacingLeft=3;spacingRight=3;rotatable=0;labelPosition=right;points=[];portConstraint=eastwest;" parent="rwpX8sAkl0MTFjeVuuJa-47" vertex="1">
          <mxGeometry y="50" width="370" height="8" as="geometry" />
        </mxCell>
        <mxCell id="IOBqYMl_oJ27bjHW-lKR-39" value="+ InitMesh (int) : void" style="text;strokeColor=none;fillColor=none;align=left;verticalAlign=top;spacingLeft=4;spacingRight=4;overflow=hidden;rotatable=0;points=[[0,0.5],[1,0.5]];portConstraint=eastwest;" vertex="1" parent="rwpX8sAkl0MTFjeVuuJa-47">
          <mxGeometry y="58" width="370" height="24" as="geometry" />
        </mxCell>
        <mxCell id="rwpX8sAkl0MTFjeVuuJa-50" value="+ AddSoldier(Soldier) : void" style="text;strokeColor=none;fillColor=none;align=left;verticalAlign=top;spacingLeft=4;spacingRight=4;overflow=hidden;rotatable=0;points=[[0,0.5],[1,0.5]];portConstraint=eastwest;" parent="rwpX8sAkl0MTFjeVuuJa-47" vertex="1">
          <mxGeometry y="82" width="370" height="24" as="geometry" />
        </mxCell>
        <mxCell id="rwpX8sAkl0MTFjeVuuJa-52" value="+ RemoveSoldier(Soldier) : void" style="text;strokeColor=none;fillColor=none;align=left;verticalAlign=top;spacingLeft=4;spacingRight=4;overflow=hidden;rotatable=0;points=[[0,0.5],[1,0.5]];portConstraint=eastwest;" parent="rwpX8sAkl0MTFjeVuuJa-47" vertex="1">
          <mxGeometry y="106" width="370" height="24" as="geometry" />
        </mxCell>
        <mxCell id="IOBqYMl_oJ27bjHW-lKR-3" value="ICellChildren" style="swimlane;fontStyle=1;align=center;verticalAlign=top;childLayout=stackLayout;horizontal=1;startSize=26;horizontalStack=0;resizeParent=1;resizeParentMax=0;resizeLast=0;collapsible=1;marginBottom=0;" vertex="1" parent="WIyWlLk6GJQsqaUBKTNV-1">
          <mxGeometry x="-1370" y="310" width="370" height="82" as="geometry" />
        </mxCell>
        <mxCell id="IOBqYMl_oJ27bjHW-lKR-4" value="+ ExitFromCell: event Action &lt;&gt;" style="text;strokeColor=none;fillColor=none;align=left;verticalAlign=top;spacingLeft=4;spacingRight=4;overflow=hidden;rotatable=0;points=[[0,0.5],[1,0.5]];portConstraint=eastwest;" vertex="1" parent="IOBqYMl_oJ27bjHW-lKR-3">
          <mxGeometry y="26" width="370" height="24" as="geometry" />
        </mxCell>
        <mxCell id="IOBqYMl_oJ27bjHW-lKR-29" value="+  &lt;&lt;Get, Set&gt;&gt; Type : CellChildrenType " style="text;strokeColor=none;fillColor=none;align=left;verticalAlign=top;spacingLeft=4;spacingRight=4;overflow=hidden;rotatable=0;points=[[0,0.5],[1,0.5]];portConstraint=eastwest;" vertex="1" parent="IOBqYMl_oJ27bjHW-lKR-3">
          <mxGeometry y="50" width="370" height="24" as="geometry" />
        </mxCell>
        <mxCell id="IOBqYMl_oJ27bjHW-lKR-5" value="" style="line;strokeWidth=1;fillColor=none;align=left;verticalAlign=middle;spacingTop=-1;spacingLeft=3;spacingRight=3;rotatable=0;labelPosition=right;points=[];portConstraint=eastwest;" vertex="1" parent="IOBqYMl_oJ27bjHW-lKR-3">
          <mxGeometry y="74" width="370" height="8" as="geometry" />
        </mxCell>
        <mxCell id="IOBqYMl_oJ27bjHW-lKR-7" value="Soldier" style="swimlane;fontStyle=1;align=center;verticalAlign=top;childLayout=stackLayout;horizontal=1;startSize=26;horizontalStack=0;resizeParent=1;resizeParentMax=0;resizeLast=0;collapsible=1;marginBottom=0;" vertex="1" parent="WIyWlLk6GJQsqaUBKTNV-1">
          <mxGeometry x="-940" y="530" width="370" height="34" as="geometry" />
        </mxCell>
        <mxCell id="IOBqYMl_oJ27bjHW-lKR-9" value="" style="line;strokeWidth=1;fillColor=none;align=left;verticalAlign=middle;spacingTop=-1;spacingLeft=3;spacingRight=3;rotatable=0;labelPosition=right;points=[];portConstraint=eastwest;" vertex="1" parent="IOBqYMl_oJ27bjHW-lKR-7">
          <mxGeometry y="26" width="370" height="8" as="geometry" />
        </mxCell>
        <mxCell id="IOBqYMl_oJ27bjHW-lKR-11" value="" style="endArrow=block;dashed=1;endFill=0;endSize=12;html=1;rounded=0;exitX=0.5;exitY=0;exitDx=0;exitDy=0;entryX=0.5;entryY=1;entryDx=0;entryDy=0;" edge="1" parent="WIyWlLk6GJQsqaUBKTNV-1" source="IOBqYMl_oJ27bjHW-lKR-7" target="IOBqYMl_oJ27bjHW-lKR-3">
          <mxGeometry width="160" relative="1" as="geometry">
            <mxPoint x="-720" y="90" as="sourcePoint" />
            <mxPoint x="-560" y="90" as="targetPoint" />
          </mxGeometry>
        </mxCell>
        <mxCell id="IOBqYMl_oJ27bjHW-lKR-12" value="Use" style="endArrow=open;endSize=12;dashed=1;html=1;rounded=0;exitX=0.39;exitY=1.238;exitDx=0;exitDy=0;exitPerimeter=0;entryX=0.579;entryY=0.003;entryDx=0;entryDy=0;entryPerimeter=0;" edge="1" parent="WIyWlLk6GJQsqaUBKTNV-1" source="rwpX8sAkl0MTFjeVuuJa-52" target="IOBqYMl_oJ27bjHW-lKR-7">
          <mxGeometry width="160" relative="1" as="geometry">
            <mxPoint x="-720" y="200" as="sourcePoint" />
            <mxPoint x="-520" y="180" as="targetPoint" />
          </mxGeometry>
        </mxCell>
        <mxCell id="IOBqYMl_oJ27bjHW-lKR-13" value="" style="endArrow=open;endFill=1;endSize=12;html=1;rounded=0;exitX=0.75;exitY=0;exitDx=0;exitDy=0;entryX=0.811;entryY=1.091;entryDx=0;entryDy=0;entryPerimeter=0;" edge="1" parent="WIyWlLk6GJQsqaUBKTNV-1" source="IOBqYMl_oJ27bjHW-lKR-3" target="rwpX8sAkl0MTFjeVuuJa-33">
          <mxGeometry width="160" relative="1" as="geometry">
            <mxPoint x="-720" y="90" as="sourcePoint" />
            <mxPoint x="-560" y="90" as="targetPoint" />
          </mxGeometry>
        </mxCell>
        <mxCell id="IOBqYMl_oJ27bjHW-lKR-14" value="Use" style="endArrow=open;endSize=12;dashed=1;html=1;rounded=0;entryX=0.43;entryY=0.019;entryDx=0;entryDy=0;entryPerimeter=0;" edge="1" parent="WIyWlLk6GJQsqaUBKTNV-1" source="rwpX8sAkl0MTFjeVuuJa-32" target="rwpX8sAkl0MTFjeVuuJa-47">
          <mxGeometry width="160" relative="1" as="geometry">
            <mxPoint x="-470" y="-180" as="sourcePoint" />
            <mxPoint x="-520" y="10" as="targetPoint" />
          </mxGeometry>
        </mxCell>
        <mxCell id="IOBqYMl_oJ27bjHW-lKR-15" value="Use" style="endArrow=open;endSize=12;dashed=1;html=1;rounded=0;exitX=0.502;exitY=1.155;exitDx=0;exitDy=0;exitPerimeter=0;" edge="1" parent="WIyWlLk6GJQsqaUBKTNV-1" source="IOBqYMl_oJ27bjHW-lKR-2" target="IOBqYMl_oJ27bjHW-lKR-3">
          <mxGeometry width="160" relative="1" as="geometry">
            <mxPoint x="-1065.9299999999998" y="230.002" as="sourcePoint" />
            <mxPoint x="-1090" y="448.53599999999966" as="targetPoint" />
          </mxGeometry>
        </mxCell>
        <mxCell id="IOBqYMl_oJ27bjHW-lKR-16" value="PlayerUpgradeComponent" style="swimlane;fontStyle=1;align=center;verticalAlign=top;childLayout=stackLayout;horizontal=1;startSize=26;horizontalStack=0;resizeParent=1;resizeParentMax=0;resizeLast=0;collapsible=1;marginBottom=0;" vertex="1" parent="WIyWlLk6GJQsqaUBKTNV-1">
          <mxGeometry x="-620" y="-600" width="370" height="274" as="geometry" />
        </mxCell>
        <mxCell id="IOBqYMl_oJ27bjHW-lKR-17" value="- playerMoveConfig : PlayerMoveConfig" style="text;strokeColor=none;fillColor=none;align=left;verticalAlign=top;spacingLeft=4;spacingRight=4;overflow=hidden;rotatable=0;points=[[0,0.5],[1,0.5]];portConstraint=eastwest;" vertex="1" parent="IOBqYMl_oJ27bjHW-lKR-16">
          <mxGeometry y="26" width="370" height="24" as="geometry" />
        </mxCell>
        <mxCell id="IOBqYMl_oJ27bjHW-lKR-18" value="- playerAnimationComponent : PlayerAnimationComponent" style="text;strokeColor=none;fillColor=none;align=left;verticalAlign=top;spacingLeft=4;spacingRight=4;overflow=hidden;rotatable=0;points=[[0,0.5],[1,0.5]];portConstraint=eastwest;" vertex="1" parent="IOBqYMl_oJ27bjHW-lKR-16">
          <mxGeometry y="50" width="370" height="24" as="geometry" />
        </mxCell>
        <mxCell id="IOBqYMl_oJ27bjHW-lKR-19" value="- moveSpeed : float" style="text;strokeColor=none;fillColor=none;align=left;verticalAlign=top;spacingLeft=4;spacingRight=4;overflow=hidden;rotatable=0;points=[[0,0.5],[1,0.5]];portConstraint=eastwest;" vertex="1" parent="IOBqYMl_oJ27bjHW-lKR-16">
          <mxGeometry y="74" width="370" height="24" as="geometry" />
        </mxCell>
        <mxCell id="IOBqYMl_oJ27bjHW-lKR-20" value="- rotationSpeed : float" style="text;strokeColor=none;fillColor=none;align=left;verticalAlign=top;spacingLeft=4;spacingRight=4;overflow=hidden;rotatable=0;points=[[0,0.5],[1,0.5]];portConstraint=eastwest;" vertex="1" parent="IOBqYMl_oJ27bjHW-lKR-16">
          <mxGeometry y="98" width="370" height="24" as="geometry" />
        </mxCell>
        <mxCell id="IOBqYMl_oJ27bjHW-lKR-21" value="- rigidBody : RigidBody" style="text;strokeColor=none;fillColor=none;align=left;verticalAlign=top;spacingLeft=4;spacingRight=4;overflow=hidden;rotatable=0;points=[[0,0.5],[1,0.5]];portConstraint=eastwest;" vertex="1" parent="IOBqYMl_oJ27bjHW-lKR-16">
          <mxGeometry y="122" width="370" height="24" as="geometry" />
        </mxCell>
        <mxCell id="IOBqYMl_oJ27bjHW-lKR-22" value="" style="line;strokeWidth=1;fillColor=none;align=left;verticalAlign=middle;spacingTop=-1;spacingLeft=3;spacingRight=3;rotatable=0;labelPosition=right;points=[];portConstraint=eastwest;" vertex="1" parent="IOBqYMl_oJ27bjHW-lKR-16">
          <mxGeometry y="146" width="370" height="8" as="geometry" />
        </mxCell>
        <mxCell id="IOBqYMl_oJ27bjHW-lKR-23" value="- FixedUpdate() : void" style="text;strokeColor=none;fillColor=none;align=left;verticalAlign=top;spacingLeft=4;spacingRight=4;overflow=hidden;rotatable=0;points=[[0,0.5],[1,0.5]];portConstraint=eastwest;" vertex="1" parent="IOBqYMl_oJ27bjHW-lKR-16">
          <mxGeometry y="154" width="370" height="24" as="geometry" />
        </mxCell>
        <mxCell id="IOBqYMl_oJ27bjHW-lKR-24" value="- UpdateSpeed() : void" style="text;strokeColor=none;fillColor=none;align=left;verticalAlign=top;spacingLeft=4;spacingRight=4;overflow=hidden;rotatable=0;points=[[0,0.5],[1,0.5]];portConstraint=eastwest;" vertex="1" parent="IOBqYMl_oJ27bjHW-lKR-16">
          <mxGeometry y="178" width="370" height="24" as="geometry" />
        </mxCell>
        <mxCell id="IOBqYMl_oJ27bjHW-lKR-25" value="- UpdateRotationSpeed() : void" style="text;strokeColor=none;fillColor=none;align=left;verticalAlign=top;spacingLeft=4;spacingRight=4;overflow=hidden;rotatable=0;points=[[0,0.5],[1,0.5]];portConstraint=eastwest;" vertex="1" parent="IOBqYMl_oJ27bjHW-lKR-16">
          <mxGeometry y="202" width="370" height="24" as="geometry" />
        </mxCell>
        <mxCell id="IOBqYMl_oJ27bjHW-lKR-26" value="- OnUpdateInputJoy(Vector3) : void" style="text;strokeColor=none;fillColor=none;align=left;verticalAlign=top;spacingLeft=4;spacingRight=4;overflow=hidden;rotatable=0;points=[[0,0.5],[1,0.5]];portConstraint=eastwest;" vertex="1" parent="IOBqYMl_oJ27bjHW-lKR-16">
          <mxGeometry y="226" width="370" height="24" as="geometry" />
        </mxCell>
        <mxCell id="IOBqYMl_oJ27bjHW-lKR-27" value="- OnInputUpJoy(Vector3) : void" style="text;strokeColor=none;fillColor=none;align=left;verticalAlign=top;spacingLeft=4;spacingRight=4;overflow=hidden;rotatable=0;points=[[0,0.5],[1,0.5]];portConstraint=eastwest;" vertex="1" parent="IOBqYMl_oJ27bjHW-lKR-16">
          <mxGeometry y="250" width="370" height="24" as="geometry" />
        </mxCell>
        <mxCell id="IOBqYMl_oJ27bjHW-lKR-30" value="" style="endArrow=open;endFill=1;endSize=12;html=1;rounded=0;exitX=0;exitY=0.5;exitDx=0;exitDy=0;entryX=1;entryY=0.5;entryDx=0;entryDy=0;" edge="1" parent="WIyWlLk6GJQsqaUBKTNV-1" source="rwpX8sAkl0MTFjeVuuJa-50" target="rwpX8sAkl0MTFjeVuuJa-39">
          <mxGeometry width="160" relative="1" as="geometry">
            <mxPoint x="-970" y="170" as="sourcePoint" />
            <mxPoint x="-810" y="170" as="targetPoint" />
          </mxGeometry>
        </mxCell>
        <mxCell id="IOBqYMl_oJ27bjHW-lKR-31" value="&lt;&lt;Ienumeration&gt;&gt;  CellChildrenType" style="swimlane;fontStyle=0;childLayout=stackLayout;horizontal=1;startSize=26;fillColor=none;horizontalStack=0;resizeParent=1;resizeParentMax=0;resizeLast=0;collapsible=1;marginBottom=0;" vertex="1" parent="WIyWlLk6GJQsqaUBKTNV-1">
          <mxGeometry x="-1800" y="260" width="350" height="104" as="geometry" />
        </mxCell>
        <mxCell id="IOBqYMl_oJ27bjHW-lKR-33" value="None" style="text;strokeColor=none;fillColor=none;align=left;verticalAlign=top;spacingLeft=4;spacingRight=4;overflow=hidden;rotatable=0;points=[[0,0.5],[1,0.5]];portConstraint=eastwest;" vertex="1" parent="IOBqYMl_oJ27bjHW-lKR-31">
          <mxGeometry y="26" width="350" height="26" as="geometry" />
        </mxCell>
        <mxCell id="IOBqYMl_oJ27bjHW-lKR-35" value="Soldier" style="text;strokeColor=none;fillColor=none;align=left;verticalAlign=top;spacingLeft=4;spacingRight=4;overflow=hidden;rotatable=0;points=[[0,0.5],[1,0.5]];portConstraint=eastwest;" vertex="1" parent="IOBqYMl_oJ27bjHW-lKR-31">
          <mxGeometry y="52" width="350" height="26" as="geometry" />
        </mxCell>
        <mxCell id="IOBqYMl_oJ27bjHW-lKR-36" value="..." style="text;strokeColor=none;fillColor=none;align=left;verticalAlign=top;spacingLeft=4;spacingRight=4;overflow=hidden;rotatable=0;points=[[0,0.5],[1,0.5]];portConstraint=eastwest;" vertex="1" parent="IOBqYMl_oJ27bjHW-lKR-31">
          <mxGeometry y="78" width="350" height="26" as="geometry" />
        </mxCell>
        <mxCell id="IOBqYMl_oJ27bjHW-lKR-37" value="" style="endArrow=open;endFill=1;endSize=12;html=1;rounded=0;entryX=1.003;entryY=0.115;entryDx=0;entryDy=0;entryPerimeter=0;exitX=0.002;exitY=-0.028;exitDx=0;exitDy=0;exitPerimeter=0;" edge="1" parent="WIyWlLk6GJQsqaUBKTNV-1" source="IOBqYMl_oJ27bjHW-lKR-29" target="IOBqYMl_oJ27bjHW-lKR-35">
          <mxGeometry width="160" relative="1" as="geometry">
            <mxPoint x="-1050" y="330" as="sourcePoint" />
            <mxPoint x="-890" y="330" as="targetPoint" />
          </mxGeometry>
        </mxCell>
        <mxCell id="IOBqYMl_oJ27bjHW-lKR-47" value="" style="endArrow=open;endFill=1;endSize=12;html=1;rounded=0;exitX=0;exitY=0.5;exitDx=0;exitDy=0;entryX=0.986;entryY=0.048;entryDx=0;entryDy=0;entryPerimeter=0;" edge="1" parent="WIyWlLk6GJQsqaUBKTNV-1" source="mCtXMymxD6PoVu8J4Z9Z-102" target="mCtXMymxD6PoVu8J4Z9Z-152">
          <mxGeometry width="160" relative="1" as="geometry">
            <mxPoint x="-310" y="-810" as="sourcePoint" />
            <mxPoint x="-150" y="-810" as="targetPoint" />
          </mxGeometry>
        </mxCell>
        <mxCell id="IOBqYMl_oJ27bjHW-lKR-48" value="" style="endArrow=open;endFill=1;endSize=12;html=1;rounded=0;exitX=0;exitY=0.5;exitDx=0;exitDy=0;entryX=1;entryY=0.5;entryDx=0;entryDy=0;" edge="1" parent="WIyWlLk6GJQsqaUBKTNV-1" source="mCtXMymxD6PoVu8J4Z9Z-99" target="rwpX8sAkl0MTFjeVuuJa-8">
          <mxGeometry width="160" relative="1" as="geometry">
            <mxPoint x="-79.99999999999955" y="-831" as="sourcePoint" />
            <mxPoint x="-245.17999999999984" y="-756.848" as="targetPoint" />
          </mxGeometry>
        </mxCell>
        <mxCell id="IOBqYMl_oJ27bjHW-lKR-49" value="" style="endArrow=open;endFill=1;endSize=12;html=1;rounded=0;exitX=0.009;exitY=1.027;exitDx=0;exitDy=0;entryX=1;entryY=0.5;entryDx=0;entryDy=0;exitPerimeter=0;" edge="1" parent="WIyWlLk6GJQsqaUBKTNV-1" source="mCtXMymxD6PoVu8J4Z9Z-157" target="IOBqYMl_oJ27bjHW-lKR-21">
          <mxGeometry width="160" relative="1" as="geometry">
            <mxPoint x="-79.99999999999955" y="-831" as="sourcePoint" />
            <mxPoint x="-245.17999999999984" y="-756.848" as="targetPoint" />
          </mxGeometry>
        </mxCell>
        <mxCell id="IOBqYMl_oJ27bjHW-lKR-50" value="" style="endArrow=open;endFill=1;endSize=12;html=1;rounded=0;exitX=0.006;exitY=1.125;exitDx=0;exitDy=0;entryX=1;entryY=0.5;entryDx=0;entryDy=0;exitPerimeter=0;" edge="1" parent="WIyWlLk6GJQsqaUBKTNV-1" source="mCtXMymxD6PoVu8J4Z9Z-101" target="IOBqYMl_oJ27bjHW-lKR-38">
          <mxGeometry width="160" relative="1" as="geometry">
            <mxPoint x="-76.67000000000007" y="-791.2980000000002" as="sourcePoint" />
            <mxPoint x="-239.99999999999955" y="-456" as="targetPoint" />
          </mxGeometry>
        </mxCell>
        <mxCell id="IOBqYMl_oJ27bjHW-lKR-51" value="" style="endArrow=open;endFill=1;endSize=12;html=1;rounded=0;exitX=0;exitY=0;exitDx=0;exitDy=0;entryX=1;entryY=0.5;entryDx=0;entryDy=0;" edge="1" parent="WIyWlLk6GJQsqaUBKTNV-1" source="mCtXMymxD6PoVu8J4Z9Z-97" target="mCtXMymxD6PoVu8J4Z9Z-166">
          <mxGeometry width="160" relative="1" as="geometry">
            <mxPoint x="4.547473508864641e-13" y="-817" as="sourcePoint" />
            <mxPoint x="-289.99999999999955" y="-1096" as="targetPoint" />
          </mxGeometry>
        </mxCell>
      </root>
    </mxGraphModel>
  </diagram>
</mxfile>
